<?xml version="1.0" encoding="UTF-8"?>
<svg viewBox="0 0 543 497" version="1.1" preserveAspectRatio="none" xmlns="http://www.w3.org/2000/svg" xmlns:xlink="http://www.w3.org/1999/xlink">
    <title>Image</title>
    <g id="Page-1" stroke="none" stroke-width="1" fill="none">
        <g id="Image">
            <circle id="Oval" fill="#172A58" fill-rule="nonzero" cx="5" cy="5" r="5"></circle>
            <circle id="Oval" fill="#172A58" fill-rule="nonzero" cx="5" cy="35" r="5"></circle>
            <circle id="Oval" fill="#172A58" fill-rule="nonzero" cx="5" cy="65" r="5"></circle>
            <circle id="Oval" fill="#172A58" fill-rule="nonzero" cx="5" cy="95" r="5"></circle>
            <circle id="Oval" fill="#172A58" fill-rule="nonzero" cx="5" cy="125" r="5"></circle>
            <circle id="Oval" fill="#172A58" fill-rule="nonzero" cx="5" cy="155" r="5"></circle>
            <circle id="Oval" fill="#172A58" fill-rule="nonzero" cx="5" cy="185" r="5"></circle>
            <circle id="Oval" fill="#172A58" fill-rule="nonzero" cx="5" cy="215" r="5"></circle>
            <circle id="Oval" fill="#172A58" fill-rule="nonzero" cx="5" cy="245" r="5"></circle>
            <circle id="Oval" fill="#172A58" fill-rule="nonzero" cx="5" cy="275" r="5"></circle>
            <circle id="Oval" fill="#172A58" fill-rule="nonzero" cx="5" cy="305" r="5"></circle>
            <circle id="Oval" fill="#172A58" fill-rule="nonzero" cx="5" cy="335" r="5"></circle>
            <circle id="Oval" fill="#172A58" fill-rule="nonzero" cx="35" cy="5" r="5"></circle>
            <circle id="Oval" fill="#172A58" fill-rule="nonzero" cx="35" cy="35" r="5"></circle>
            <circle id="Oval" fill="#172A58" fill-rule="nonzero" cx="35" cy="65" r="5"></circle>
            <circle id="Oval" fill="#172A58" fill-rule="nonzero" cx="35" cy="95" r="5"></circle>
            <circle id="Oval" fill="#172A58" fill-rule="nonzero" cx="35" cy="125" r="5"></circle>
            <circle id="Oval" fill="#172A58" fill-rule="nonzero" cx="35" cy="155" r="5"></circle>
            <circle id="Oval" fill="#172A58" fill-rule="nonzero" cx="35" cy="185" r="5"></circle>
            <circle id="Oval" fill="#172A58" fill-rule="nonzero" cx="35" cy="215" r="5"></circle>
            <circle id="Oval" fill="#172A58" fill-rule="nonzero" cx="35" cy="245" r="5"></circle>
            <circle id="Oval" fill="#172A58" fill-rule="nonzero" cx="35" cy="275" r="5"></circle>
            <circle id="Oval" fill="#172A58" fill-rule="nonzero" cx="35" cy="305" r="5"></circle>
            <circle id="Oval" fill="#172A58" fill-rule="nonzero" cx="35" cy="335" r="5"></circle>
            <circle id="Oval" fill="#172A58" fill-rule="nonzero" cx="65" cy="5" r="5"></circle>
            <circle id="Oval" fill="#172A58" fill-rule="nonzero" cx="65" cy="35" r="5"></circle>
            <circle id="Oval" fill="#172A58" fill-rule="nonzero" cx="65" cy="65" r="5"></circle>
            <circle id="Oval" fill="#172A58" fill-rule="nonzero" cx="65" cy="95" r="5"></circle>
            <circle id="Oval" fill="#172A58" fill-rule="nonzero" cx="65" cy="125" r="5"></circle>
            <circle id="Oval" fill="#172A58" fill-rule="nonzero" cx="65" cy="155" r="5"></circle>
            <circle id="Oval" fill="#172A58" fill-rule="nonzero" cx="65" cy="185" r="5"></circle>
            <circle id="Oval" fill="#172A58" fill-rule="nonzero" cx="65" cy="215" r="5"></circle>
            <circle id="Oval" fill="#172A58" fill-rule="nonzero" cx="65" cy="245" r="5"></circle>
            <circle id="Oval" fill="#172A58" fill-rule="nonzero" cx="65" cy="275" r="5"></circle>
            <circle id="Oval" fill="#172A58" fill-rule="nonzero" cx="65" cy="305" r="5"></circle>
            <circle id="Oval" fill="#172A58" fill-rule="nonzero" cx="65" cy="335" r="5"></circle>
            <circle id="Oval" fill="#172A58" fill-rule="nonzero" cx="95" cy="5" r="5"></circle>
            <circle id="Oval" fill="#172A58" fill-rule="nonzero" cx="95" cy="35" r="5"></circle>
            <circle id="Oval" fill="#172A58" fill-rule="nonzero" cx="95" cy="65" r="5"></circle>
            <circle id="Oval" fill="#172A58" fill-rule="nonzero" cx="95" cy="95" r="5"></circle>
            <circle id="Oval" fill="#172A58" fill-rule="nonzero" cx="95" cy="125" r="5"></circle>
            <circle id="Oval" fill="#172A58" fill-rule="nonzero" cx="95" cy="155" r="5"></circle>
            <circle id="Oval" fill="#172A58" fill-rule="nonzero" cx="95" cy="185" r="5"></circle>
            <circle id="Oval" fill="#172A58" fill-rule="nonzero" cx="95" cy="215" r="5"></circle>
            <circle id="Oval" fill="#172A58" fill-rule="nonzero" cx="95" cy="245" r="5"></circle>
            <circle id="Oval" fill="#172A58" fill-rule="nonzero" cx="95" cy="275" r="5"></circle>
            <circle id="Oval" fill="#172A58" fill-rule="nonzero" cx="95" cy="305" r="5"></circle>
            <circle id="Oval" fill="#172A58" fill-rule="nonzero" cx="95" cy="335" r="5"></circle>
            <circle id="Oval" fill="#172A58" fill-rule="nonzero" cx="125" cy="5" r="5"></circle>
            <circle id="Oval" fill="#172A58" fill-rule="nonzero" cx="125" cy="35" r="5"></circle>
            <circle id="Oval" fill="#172A58" fill-rule="nonzero" cx="125" cy="65" r="5"></circle>
            <circle id="Oval" fill="#172A58" fill-rule="nonzero" cx="125" cy="95" r="5"></circle>
            <circle id="Oval" fill="#172A58" fill-rule="nonzero" cx="125" cy="125" r="5"></circle>
            <circle id="Oval" fill="#172A58" fill-rule="nonzero" cx="125" cy="155" r="5"></circle>
            <circle id="Oval" fill="#172A58" fill-rule="nonzero" cx="125" cy="185" r="5"></circle>
            <circle id="Oval" fill="#172A58" fill-rule="nonzero" cx="125" cy="215" r="5"></circle>
            <circle id="Oval" fill="#172A58" fill-rule="nonzero" cx="125" cy="245" r="5"></circle>
            <circle id="Oval" fill="#172A58" fill-rule="nonzero" cx="125" cy="275" r="5"></circle>
            <circle id="Oval" fill="#172A58" fill-rule="nonzero" cx="125" cy="305" r="5"></circle>
            <circle id="Oval" fill="#172A58" fill-rule="nonzero" cx="125" cy="335" r="5"></circle>
            <circle id="Oval" fill="#172A58" fill-rule="nonzero" cx="155" cy="5" r="5"></circle>
            <circle id="Oval" fill="#172A58" fill-rule="nonzero" cx="155" cy="35" r="5"></circle>
            <circle id="Oval" fill="#172A58" fill-rule="nonzero" cx="155" cy="65" r="5"></circle>
            <circle id="Oval" fill="#172A58" fill-rule="nonzero" cx="155" cy="95" r="5"></circle>
            <circle id="Oval" fill="#172A58" fill-rule="nonzero" cx="155" cy="125" r="5"></circle>
            <circle id="Oval" fill="#172A58" fill-rule="nonzero" cx="155" cy="155" r="5"></circle>
            <circle id="Oval" fill="#172A58" fill-rule="nonzero" cx="155" cy="185" r="5"></circle>
            <circle id="Oval" fill="#172A58" fill-rule="nonzero" cx="155" cy="215" r="5"></circle>
            <circle id="Oval" fill="#172A58" fill-rule="nonzero" cx="155" cy="245" r="5"></circle>
            <circle id="Oval" fill="#172A58" fill-rule="nonzero" cx="155" cy="275" r="5"></circle>
            <circle id="Oval" fill="#172A58" fill-rule="nonzero" cx="155" cy="305" r="5"></circle>
            <circle id="Oval" fill="#172A58" fill-rule="nonzero" cx="155" cy="335" r="5"></circle>
            <circle id="Oval" fill="#172A58" fill-rule="nonzero" cx="185" cy="5" r="5"></circle>
            <circle id="Oval" fill="#172A58" fill-rule="nonzero" cx="215" cy="5" r="5"></circle>
            <circle id="Oval" fill="#172A58" fill-rule="nonzero" cx="245" cy="5" r="5"></circle>
            <circle id="Oval" fill="#172A58" fill-rule="nonzero" cx="275" cy="5" r="5"></circle>
            <circle id="Oval" fill="#172A58" fill-rule="nonzero" cx="305" cy="5" r="5"></circle>
            <circle id="Oval" fill="#172A58" fill-rule="nonzero" cx="335" cy="5" r="5"></circle>
            <circle id="Oval" fill="#172A58" fill-rule="nonzero" cx="185" cy="35" r="5"></circle>
            <circle id="Oval" fill="#172A58" fill-rule="nonzero" cx="215" cy="35" r="5"></circle>
            <circle id="Oval" fill="#172A58" fill-rule="nonzero" cx="245" cy="35" r="5"></circle>
            <circle id="Oval" fill="#172A58" fill-rule="nonzero" cx="275" cy="35" r="5"></circle>
            <circle id="Oval" fill="#172A58" fill-rule="nonzero" cx="305" cy="35" r="5"></circle>
            <circle id="Oval" fill="#172A58" fill-rule="nonzero" cx="335" cy="35" r="5"></circle>
            <circle id="Oval" fill="#172A58" fill-rule="nonzero" cx="185" cy="65" r="5"></circle>
            <circle id="Oval" fill="#172A58" fill-rule="nonzero" cx="215" cy="65" r="5"></circle>
            <circle id="Oval" fill="#172A58" fill-rule="nonzero" cx="245" cy="65" r="5"></circle>
            <circle id="Oval" fill="#172A58" fill-rule="nonzero" cx="275" cy="65" r="5"></circle>
            <circle id="Oval" fill="#172A58" fill-rule="nonzero" cx="305" cy="65" r="5"></circle>
            <circle id="Oval" fill="#172A58" fill-rule="nonzero" cx="335" cy="65" r="5"></circle>
            <circle id="Oval" fill="#172A58" fill-rule="nonzero" cx="185" cy="95" r="5"></circle>
            <circle id="Oval" fill="#172A58" fill-rule="nonzero" cx="215" cy="95" r="5"></circle>
            <circle id="Oval" fill="#172A58" fill-rule="nonzero" cx="245" cy="95" r="5"></circle>
            <circle id="Oval" fill="#172A58" fill-rule="nonzero" cx="275" cy="95" r="5"></circle>
            <circle id="Oval" fill="#172A58" fill-rule="nonzero" cx="305" cy="95" r="5"></circle>
            <circle id="Oval" fill="#172A58" fill-rule="nonzero" cx="335" cy="95" r="5"></circle>
            <circle id="Oval" fill="#172A58" fill-rule="nonzero" cx="185" cy="125" r="5"></circle>
            <circle id="Oval" fill="#172A58" fill-rule="nonzero" cx="215" cy="125" r="5"></circle>
            <circle id="Oval" fill="#172A58" fill-rule="nonzero" cx="245" cy="125" r="5"></circle>
            <circle id="Oval" fill="#172A58" fill-rule="nonzero" cx="275" cy="125" r="5"></circle>
            <circle id="Oval" fill="#172A58" fill-rule="nonzero" cx="305" cy="125" r="5"></circle>
            <circle id="Oval" fill="#172A58" fill-rule="nonzero" cx="335" cy="125" r="5"></circle>
            <circle id="Oval" fill="#172A58" fill-rule="nonzero" cx="185" cy="155" r="5"></circle>
            <circle id="Oval" fill="#172A58" fill-rule="nonzero" cx="215" cy="155" r="5"></circle>
            <circle id="Oval" fill="#172A58" fill-rule="nonzero" cx="245" cy="155" r="5"></circle>
            <circle id="Oval" fill="#172A58" fill-rule="nonzero" cx="275" cy="155" r="5"></circle>
            <circle id="Oval" fill="#172A58" fill-rule="nonzero" cx="305" cy="155" r="5"></circle>
            <circle id="Oval" fill="#172A58" fill-rule="nonzero" cx="335" cy="155" r="5"></circle>
            <circle id="Oval" fill="#172A58" fill-rule="nonzero" cx="185" cy="185" r="5"></circle>
            <circle id="Oval" fill="#172A58" fill-rule="nonzero" cx="215" cy="185" r="5"></circle>
            <circle id="Oval" fill="#172A58" fill-rule="nonzero" cx="245" cy="185" r="5"></circle>
            <circle id="Oval" fill="#172A58" fill-rule="nonzero" cx="275" cy="185" r="5"></circle>
            <circle id="Oval" fill="#172A58" fill-rule="nonzero" cx="305" cy="185" r="5"></circle>
            <circle id="Oval" fill="#172A58" fill-rule="nonzero" cx="335" cy="185" r="5"></circle>
            <circle id="Oval" fill="#172A58" fill-rule="nonzero" cx="185" cy="215" r="5"></circle>
            <circle id="Oval" fill="#172A58" fill-rule="nonzero" cx="215" cy="215" r="5"></circle>
            <circle id="Oval" fill="#172A58" fill-rule="nonzero" cx="245" cy="215" r="5"></circle>
            <circle id="Oval" fill="#172A58" fill-rule="nonzero" cx="275" cy="215" r="5"></circle>
            <circle id="Oval" fill="#172A58" fill-rule="nonzero" cx="305" cy="215" r="5"></circle>
            <circle id="Oval" fill="#172A58" fill-rule="nonzero" cx="335" cy="215" r="5"></circle>
            <circle id="Oval" fill="#172A58" fill-rule="nonzero" cx="185" cy="245" r="5"></circle>
            <circle id="Oval" fill="#172A58" fill-rule="nonzero" cx="215" cy="245" r="5"></circle>
            <circle id="Oval" fill="#172A58" fill-rule="nonzero" cx="245" cy="245" r="5"></circle>
            <circle id="Oval" fill="#172A58" fill-rule="nonzero" cx="275" cy="245" r="5"></circle>
            <circle id="Oval" fill="#172A58" fill-rule="nonzero" cx="305" cy="245" r="5"></circle>
            <circle id="Oval" fill="#172A58" fill-rule="nonzero" cx="335" cy="245" r="5"></circle>
            <circle id="Oval" fill="#172A58" fill-rule="nonzero" cx="185" cy="275" r="5"></circle>
            <circle id="Oval" fill="#172A58" fill-rule="nonzero" cx="215" cy="275" r="5"></circle>
            <circle id="Oval" fill="#172A58" fill-rule="nonzero" cx="245" cy="275" r="5"></circle>
            <circle id="Oval" fill="#172A58" fill-rule="nonzero" cx="275" cy="275" r="5"></circle>
            <circle id="Oval" fill="#172A58" fill-rule="nonzero" cx="305" cy="275" r="5"></circle>
            <circle id="Oval" fill="#172A58" fill-rule="nonzero" cx="335" cy="275" r="5"></circle>
            <circle id="Oval" fill="#172A58" fill-rule="nonzero" cx="185" cy="305" r="5"></circle>
            <circle id="Oval" fill="#172A58" fill-rule="nonzero" cx="215" cy="305" r="5"></circle>
            <circle id="Oval" fill="#172A58" fill-rule="nonzero" cx="245" cy="305" r="5"></circle>
            <circle id="Oval" fill="#172A58" fill-rule="nonzero" cx="275" cy="305" r="5"></circle>
            <circle id="Oval" fill="#172A58" fill-rule="nonzero" cx="305" cy="305" r="5"></circle>
            <circle id="Oval" fill="#172A58" fill-rule="nonzero" cx="335" cy="305" r="5"></circle>
            <circle id="Oval" fill="#172A58" fill-rule="nonzero" cx="185" cy="335" r="5"></circle>
            <circle id="Oval" fill="#172A58" fill-rule="nonzero" cx="215" cy="335" r="5"></circle>
            <circle id="Oval" fill="#172A58" fill-rule="nonzero" cx="245" cy="335" r="5"></circle>
            <circle id="Oval" fill="#172A58" fill-rule="nonzero" cx="275" cy="335" r="5"></circle>
            <circle id="Oval" fill="#172A58" fill-rule="nonzero" cx="305" cy="335" r="5"></circle>
            <circle id="Oval" fill="#172A58" fill-rule="nonzero" cx="335" cy="335" r="5"></circle>
            <circle id="Oval" stroke="#7AC6BD" stroke-width="2" cx="502" cy="88" r="40"></circle>
            <circle id="Oval" fill="#FBBC79" fill-rule="nonzero" cx="140.5" cy="430.5" r="66.5"></circle>
            <circle id="Oval" fill="#EE795F" fill-rule="nonzero" cx="519" cy="158" r="13"></circle>
            <path d="M436.223,296.782 L177.243,296.782 C176.419,296.779 175.63,296.451 175.047,295.868 C174.464,295.285 174.136,294.496 174.133,293.672 C174.136,292.847 174.464,292.058 175.047,291.475 C175.63,290.892 176.419,290.564 177.243,290.561 L436.223,290.561 C437.047,290.564 437.837,290.892 438.42,291.475 C439.002,292.058 439.333,292.847 439.333,293.672 C439.333,294.496 439.002,295.285 438.42,295.868 C437.837,296.451 437.047,296.779 436.223,296.782 Z" id="Path" fill="#407BFF" fill-rule="nonzero"></path>
            <path d="M436.224,296.782 L375.598,296.782 C374.774,296.779 373.984,296.451 373.402,295.868 C372.819,295.285 372.49,294.496 372.488,293.672 C372.49,292.847 372.819,292.058 373.402,291.475 C373.984,290.892 374.774,290.564 375.598,290.561 L436.224,290.561 C437.048,290.564 437.838,290.892 438.421,291.475 C439.003,292.058 439.332,292.847 439.334,293.672 C439.332,294.496 439.003,295.285 438.421,295.868 C437.838,296.451 437.048,296.779 436.224,296.782 Z" id="Path" fill="#263238" fill-rule="nonzero" opacity="0.3"></path>
            <polygon id="Path" fill="#263238" fill-rule="nonzero" points="429.648 304.581 230.473 304.581 230.473 326.259 429.648 326.259"></polygon>
            <polygon id="Path" fill="#FFFFFF" fill-rule="nonzero" opacity="0.1" points="429.648 304.581 230.473 304.581 230.473 326.259 429.648 326.259"></polygon>
            <polygon id="Path" fill="#263238" fill-rule="nonzero" points="426.753 434.453 432.712 434.453 432.469 296.781 424.213 296.781"></polygon>
            <polygon id="Path" fill="#FFFFFF" fill-rule="nonzero" opacity="0.1" points="426.753 434.453 432.712 434.453 432.469 296.781 424.213 296.781"></polygon>
            <polygon id="Path" fill="#263238" fill-rule="nonzero" points="371.833 434.453 365.865 434.453 379.352 296.781 387.608 296.781"></polygon>
            <polygon id="Path" fill="#FFFFFF" fill-rule="nonzero" opacity="0.2" points="371.833 434.453 365.865 434.453 379.352 296.781 387.608 296.781"></polygon>
            <polygon id="Path" fill="#263238" fill-rule="nonzero" points="228.401 434.453 234.36 434.453 234.117 296.781 225.86 296.781"></polygon>
            <polygon id="Path" fill="#FFFFFF" fill-rule="nonzero" opacity="0.1" points="228.401 434.453 234.36 434.453 234.117 296.781 225.86 296.781"></polygon>
            <polygon id="Path" fill="#263238" fill-rule="nonzero" points="173.48 434.453 167.512 434.453 180.999 296.781 189.256 296.781"></polygon>
            <polygon id="Path" fill="#FFFFFF" fill-rule="nonzero" opacity="0.2" points="173.48 434.453 167.512 434.453 180.999 296.781 189.256 296.781"></polygon>
            <polygon id="Path" fill="#263238" fill-rule="nonzero" points="341.228 290.562 327.479 290.562 321.978 263.681 335.726 263.681"></polygon>
            <path d="M359.468,285.022195 L299.822,285.022195 C299.359,285.027 298.899,284.936 298.472,284.754 C298.045,284.573 297.661,284.304 297.343,283.966 C297.025,283.628 296.781,283.228 296.626,282.791 C296.471,282.354 296.408,281.889 296.441,281.426 L298.72,243.665 C298.79,242.697 299.221,241.791 299.926,241.126 C300.632,240.46 301.561,240.083 302.531,240.068875 L362.186,240.068875 C362.649,240.065 363.108,240.157 363.535,240.34 C363.961,240.522 364.345,240.79 364.662,241.128 C364.98,241.466 365.224,241.865 365.38,242.302 C365.535,242.738 365.599,243.202 365.567,243.665 L363.288,281.426 C363.216,282.395 362.783,283.301 362.076,283.966 C361.369,284.632 360.439,285.009 359.468,285.022195 Z" id="Path" fill="#263238" fill-rule="nonzero"></path>
            <path d="M358.535,285.022195 L298.89,285.022195 C298.426,285.027 297.966,284.936 297.539,284.754 C297.112,284.573 296.728,284.304 296.41,283.966 C296.092,283.628 295.848,283.228 295.693,282.791 C295.538,282.354 295.475,281.889 295.509,281.426 L297.788,243.665 C297.858,242.697 298.288,241.791 298.993,241.126 C299.699,240.46 300.628,240.083 301.598,240.068875 L361.253,240.068875 C361.716,240.065 362.176,240.157 362.602,240.34 C363.028,240.522 363.412,240.79 363.729,241.128 C364.047,241.466 364.291,241.865 364.447,242.302 C364.602,242.738 364.666,243.202 364.634,243.665 L362.355,281.426 C362.283,282.395 361.85,283.301 361.143,283.966 C360.436,284.632 359.506,285.009 358.535,285.022195 Z" id="Path" fill="#F99F8B" fill-rule="nonzero"></path>
            <path d="M298.88,283.15407 C298.672,283.156 298.467,283.115 298.276,283.035 C298.085,282.954 297.912,282.836 297.768,282.687 C297.628,282.532 297.52,282.351 297.451,282.154 C297.382,281.956 297.353,281.747 297.367,281.538 L299.646,243.777 C299.68,243.278 299.899,242.811 300.26,242.465 C300.621,242.12 301.098,241.922 301.598,241.908843 L361.252,241.908843 C361.461,241.906 361.667,241.946 361.859,242.027 C362.051,242.109 362.224,242.229 362.367,242.382 C362.509,242.534 362.618,242.714 362.687,242.911 C362.756,243.108 362.782,243.317 362.765,243.525 L360.486,281.286 C360.454,281.785 360.235,282.254 359.874,282.6 C359.512,282.946 359.034,283.144 358.534,283.15407 L298.88,283.15407 Z" id="Path" fill-opacity="0.6" fill="#FFFFFF" fill-rule="nonzero"></path>
            <polygon id="Path" fill="#000000" fill-rule="nonzero" opacity="0.2" points="325.077 240.069 328.953 253.341 340.46 240.069"></polygon>
            <path d="M232.362,207.846 C232.455,208.565 232.904,209.107 233.38,209.07 C233.856,209.032 234.155,208.416 234.062,207.697 C233.968,206.978 233.52,206.436 233.053,206.473 C232.586,206.511 232.278,207.146 232.362,207.846 Z" id="Path" fill="#263238" fill-rule="nonzero"></path>
            <path d="M233.144,208.92 C233.985,210.784 235.072,212.527 236.376,214.103 C235.348,215.14 233.471,214.72 233.471,214.72 L233.144,208.92 Z" id="Path" fill="#A02724" fill-rule="nonzero"></path>
            <path d="M229.98,205.109 C229.909,205.122 229.836,205.122 229.765,205.109 C229.661,205.064 229.579,204.98 229.536,204.876 C229.492,204.771 229.491,204.654 229.531,204.549 C229.774,203.926 230.165,203.373 230.669,202.935 C231.173,202.497 231.777,202.189 232.427,202.036 C232.481,202.027 232.537,202.028 232.591,202.041 C232.645,202.053 232.696,202.076 232.741,202.108 C232.787,202.14 232.825,202.181 232.854,202.228 C232.884,202.275 232.903,202.327 232.912,202.382 C232.932,202.493 232.906,202.607 232.841,202.7 C232.777,202.793 232.678,202.856 232.567,202.877 C232.058,203 231.587,203.247 231.196,203.595 C230.805,203.944 230.506,204.384 230.325,204.875 C230.291,204.939 230.241,204.994 230.181,205.035 C230.121,205.075 230.052,205.101 229.98,205.109 Z" id="Path" fill="#263238" fill-rule="nonzero"></path>
            <path d="M211.197,219.12 L216.801,223.416 L224.451,229.272 C224.032,230.152 223.778,231.102 223.704,232.074 C223.433,234.222 223.162,235.81 227.935,237.127 C228.442,237.248 228.903,237.512 229.264,237.888 C229.625,238.264 229.87,238.736 229.971,239.247 C230.158,240.518 229.382,242.049 224.974,242.806 C220.704,243.444 216.342,242.701 212.524,240.686 C210.656,239.752 210.656,238.631 211.44,236.735 C213.794,231.346 212.654,224.471 211.197,219.12 Z" id="Path" fill="#B55B52" fill-rule="nonzero"></path>
            <path d="M204.759,238.434 C205.835,236.363 206.723,234.2 207.411,231.97 C207.411,231.97 221.608,231.195 226.297,232.596 C230.986,233.997 233.9,240.068 233.9,240.068 L204.759,238.434 Z" id="Path" fill="#3B5CAA" fill-rule="nonzero"></path>
            <path d="M210.701,248.998 C210.356,250.044 209.973,251.323 209.608,252.5 L208.553,256.143 C207.899,258.571 207.264,261.009 206.769,263.437 C206.242,265.812 205.84,268.212 205.564,270.629 C205.276,272.849 205.207,275.092 205.359,277.326 C205.414,278.271 205.558,279.209 205.788,280.128 C205.844,280.315 205.891,280.52 205.956,280.698 L206.143,281.202 C206.099,281.112 206.049,281.024 205.994,280.941 C205.898,280.804 205.796,280.673 205.686,280.548 C205.565,280.404 205.427,280.275 205.275,280.165 C205.088,280.035 205.06,280.053 205.097,280.1 C205.371,280.297 205.665,280.463 205.975,280.595 C206.395,280.782 206.909,280.969 207.423,281.146 C208.478,281.501 209.646,281.828 210.851,282.145 C215.67,283.36 220.928,284.303 226.056,285.396 L225.888,291.868 C223.149,292.234 220.393,292.461 217.631,292.55 C214.829,292.652 212.023,292.605 209.225,292.41 C207.744,292.311 206.269,292.13 204.808,291.868 C204.042,291.728 203.248,291.569 202.407,291.336 C201.44,291.086 200.502,290.739 199.605,290.299 C198.942,289.98 198.315,289.588 197.737,289.132 C197.328,288.806 196.95,288.443 196.607,288.048 C196.393,287.795 196.193,287.53 196.009,287.254 C195.916,287.096 195.813,286.937 195.729,286.778 L195.608,286.554 L194.963,285.237 C194.767,284.798 194.608,284.368 194.44,283.929 C193.851,282.294 193.425,280.605 193.17,278.886 C192.236,272.394 192.974,266.604 193.945,260.972 C194.468,258.17 195.085,255.368 195.813,252.706 C196.187,251.351 196.579,249.997 196.999,248.661 C197.42,247.326 197.868,246.037 198.41,244.571 L210.701,248.998 Z" id="Path" fill="#B55B52" fill-rule="nonzero"></path>
            <path d="M202.061,237.275 C210.887,234.94 216.127,242.169 213.138,254.087 C210.15,266.005 209.15,266.453 209.15,266.453 L190.947,263.418 C193.188,251.743 193.011,239.657 202.061,237.275 Z" id="Path" fill="#3B5CAA" fill-rule="nonzero"></path>
            <path d="M230.577,282.808 L229.204,282.686 C225.3,282.686 224.627,283.751 222.227,285.983 L221.293,290.896 C227.597,294.119 230.978,290.579 230.988,290.579 L236.825,290.579 L234.771,285.909 C234.412,285.065 233.834,284.332 233.096,283.786 C232.359,283.241 231.489,282.903 230.577,282.808 Z" id="Path" fill="#B55B52" fill-rule="nonzero"></path>
            <path d="M208.785,209.826 C210.373,218.334 210.868,223.397 215.744,227.198 C223.066,232.905 233.153,227.478 234.143,218.624 C235.031,210.657 232.275,198.076 223.477,195.844 C221.515,195.359 219.462,195.377 217.509,195.895 C215.555,196.413 213.763,197.415 212.299,198.808 C210.835,200.202 209.746,201.942 209.132,203.867 C208.517,205.793 208.398,207.842 208.785,209.826 Z" id="Path" fill="#B55B52" fill-rule="nonzero"></path>
            <path d="M225.643,212.796 C231.714,212.31 229.94,205.912 228.063,204.576 C230.911,203.493 232.873,198.972 230.136,195.872 C231.742,191.678 227.147,186.625 219.087,187.382 C213.203,187.923 212.549,191.033 212.549,191.033 C212.549,191.033 205.497,190.296 202.564,196.114 C200.061,201.102 203.097,203.764 203.097,203.764 C203.097,203.764 197.829,205.296 199.286,212.17 C200.836,219.586 206.534,217.867 206.534,217.867 C206.534,217.867 205.254,224.667 212.96,224.76 C219.619,224.844 219.703,219.857 219.703,219.857 C219.703,219.857 228.333,219.053 225.643,212.796 Z" id="Path" fill="#263238" fill-rule="nonzero"></path>
            <path d="M221.124,213.291 C221.805,215.116 223.135,216.626 224.86,217.531 C227.083,218.671 228.783,216.308 228.39,213.879 C228.035,211.703 226.139,208.91 223.795,208.78 C221.451,208.649 220.293,211.031 221.124,213.291 Z" id="Path" fill="#B55B52" fill-rule="nonzero"></path>
            <polygon id="Path" fill="#B55B52" fill-rule="nonzero" points="311.676 423.759 319.979 420.387 314.113 400.446 305.81 403.808"></polygon>
            <polygon id="Path" fill="#000000" fill-rule="nonzero" opacity="0.2" points="308.659 413.485 317.046 410.402 314.113 400.446 305.81 403.808"></polygon>
            <path d="M319.261,417.062 L309.762,420.359 C309.682,420.384 309.608,420.424 309.544,420.477 C309.48,420.53 309.426,420.595 309.387,420.669 C309.348,420.743 309.324,420.824 309.316,420.907 C309.308,420.99 309.317,421.073 309.342,421.153 L311.49,428.831 C311.628,429.226 311.916,429.551 312.291,429.736 C312.667,429.922 313.1,429.952 313.498,429.821 C316.776,428.607 318.103,427.953 322.156,426.197 C326.146,424.528 330.049,422.657 333.85,420.593 C337.016,418.725 335.111,415.54 333.57,416.063 C329.918,417.296 323.931,418.099 320.895,417.053 C320.365,416.874 319.789,416.877 319.261,417.062 Z" id="Path" fill="#263238" fill-rule="nonzero"></path>
            <path d="M244.986,308.717 C244.986,308.717 307.742,314.321 309.367,332.376 C312.636,369.11 317.652,404.527 317.652,404.527 L304.884,409.197 C304.884,409.197 289.258,368.848 289.464,340.081 C271.363,334.972 223.766,342.472 215.986,328.509 C209.112,316.18 215.145,307.326 215.145,307.326 L244.986,308.717 Z" id="Path" fill="#263238" fill-rule="nonzero"></path>
            <polygon id="Path" fill="#DCEBDF" fill-rule="nonzero" points="303.932 412.102 319.829 406.732 319.138 399.493 301.214 405.266"></polygon>
            <path d="M322.76,417.445 C321.996,417.69 321.206,417.85 320.407,417.921 C320.366,417.926 320.325,417.919 320.288,417.901 C320.252,417.883 320.221,417.854 320.201,417.818 C320.181,417.785 320.17,417.746 320.17,417.706 C320.17,417.667 320.181,417.628 320.201,417.594 C320.407,417.314 322.237,414.848 323.405,414.886 C323.538,414.894 323.668,414.934 323.782,415.004 C323.896,415.075 323.991,415.172 324.059,415.287 C324.18,415.452 324.256,415.646 324.277,415.85 C324.298,416.053 324.265,416.259 324.18,416.445 C323.846,416.942 323.341,417.298 322.76,417.445 Z M320.892,417.445 C322.508,417.221 323.61,416.791 323.862,416.259 C323.915,416.137 323.933,416.002 323.915,415.871 C323.897,415.739 323.843,415.615 323.76,415.511 C323.731,415.451 323.686,415.4 323.63,415.364 C323.574,415.328 323.509,415.308 323.442,415.306 C322.77,415.278 321.612,416.483 320.846,417.445 L320.892,417.445 Z" id="Shape" fill="#407BFF" fill-rule="nonzero"></path>
            <path d="M320.454,417.912 C320.42,417.921 320.385,417.921 320.351,417.912 C320.317,417.906 320.284,417.892 320.257,417.871 C320.229,417.849 320.207,417.822 320.192,417.79 C320.192,417.687 319.118,415.324 319.679,414.204 C319.751,414.06 319.855,413.935 319.983,413.838 C320.111,413.741 320.259,413.674 320.416,413.643 C320.588,413.586 320.775,413.589 320.944,413.651 C321.114,413.714 321.258,413.833 321.35,413.989 C321.864,414.848 321.22,417.043 320.557,417.837 C320.531,417.872 320.495,417.898 320.454,417.912 Z M320.454,414.082 C320.374,414.109 320.301,414.152 320.238,414.209 C320.176,414.265 320.125,414.333 320.09,414.409 C319.753,415.072 320.164,416.492 320.473,417.286 C320.986,416.408 321.36,414.773 321.024,414.213 C320.958,414.11 320.846,413.989 320.547,414.054 L320.454,414.082 Z" id="Shape" fill="#407BFF" fill-rule="nonzero"></path>
            <polygon id="Path" fill="#B55B52" fill-rule="nonzero" points="267.245 429.689 276.118 429.269 277.565 408.319 268.692 408.739"></polygon>
            <path d="M276.323,427.757 L266.273,427.439 C266.19,427.433 266.106,427.443 266.026,427.469 C265.947,427.495 265.873,427.537 265.81,427.591 C265.746,427.646 265.694,427.713 265.657,427.788 C265.619,427.862 265.597,427.944 265.591,428.027 L264.853,435.957 C264.846,436.168 264.88,436.378 264.954,436.575 C265.028,436.772 265.14,436.953 265.285,437.106 C265.429,437.26 265.602,437.384 265.794,437.47 C265.986,437.557 266.193,437.604 266.404,437.61 C269.906,437.657 271.578,437.508 275.996,437.61 C278.714,437.694 284.066,438.096 287.792,437.61 C291.519,437.125 290.949,433.473 289.324,433.333 C285.485,433.024 280.339,430.372 277.883,428.308 C277.441,427.95 276.891,427.756 276.323,427.757 Z" id="Path" fill="#263238" fill-rule="nonzero"></path>
            <path d="M279.481,429.409 C278.678,429.363 277.883,429.231 277.108,429.017 C277.069,429.008 277.033,428.987 277.005,428.958 C276.977,428.929 276.958,428.892 276.951,428.852 C276.944,428.812 276.949,428.771 276.966,428.734 C276.982,428.696 277.009,428.665 277.043,428.643 C277.333,428.447 279.92,426.775 281.003,427.261 C281.126,427.314 281.233,427.398 281.315,427.504 C281.396,427.611 281.45,427.736 281.47,427.868 C281.524,428.065 281.525,428.272 281.473,428.469 C281.42,428.666 281.316,428.845 281.171,428.989 C280.682,429.34 280.077,429.49 279.481,429.409 Z M277.687,428.727 C279.275,429.101 280.489,429.092 280.891,428.727 C280.983,428.629 281.047,428.508 281.077,428.377 C281.106,428.245 281.1,428.108 281.059,427.98 C281.05,427.915 281.025,427.854 280.986,427.801 C280.947,427.749 280.895,427.708 280.835,427.681 C280.219,427.401 278.706,428.101 277.613,428.727 L277.687,428.727 Z" id="Shape" fill="#407BFF" fill-rule="nonzero"></path>
            <path d="M277.117,429.026 C277.084,429.034 277.048,429.034 277.015,429.026 C276.985,429.007 276.96,428.981 276.942,428.95 C276.924,428.919 276.914,428.884 276.912,428.849 C276.912,428.746 276.791,426.168 277.715,425.327 C277.836,425.209 277.985,425.123 278.149,425.077 C278.312,425.031 278.484,425.028 278.649,425.066 C278.828,425.076 278.998,425.146 279.132,425.264 C279.266,425.383 279.356,425.544 279.387,425.72 C279.555,426.7 278.163,428.522 277.258,429.026 C277.213,429.044 277.162,429.044 277.117,429.026 Z M278.453,425.468 C278.369,425.462 278.285,425.474 278.206,425.503 C278.127,425.532 278.056,425.577 277.995,425.636 C277.444,426.131 277.323,427.606 277.323,428.438 C278.117,427.803 279.051,426.411 278.939,425.766 C278.939,425.645 278.845,425.505 278.546,425.458 L278.453,425.468 Z" id="Shape" fill="#407BFF" fill-rule="nonzero"></path>
            <polygon id="Path" fill="#000000" fill-rule="nonzero" opacity="0.2" points="268.695 408.739 277.577 408.319 276.736 420.302 267.891 420.293"></polygon>
            <path d="M224.142,307.718 C224.142,307.718 291.764,318.057 290.69,333.627 C288.756,361.647 279.36,416.408 279.36,416.408 L266.041,416.594 C266.041,416.594 262.894,360.424 267.909,339.95 C251.275,339.95 204.351,339.371 197.953,330.825 C190.873,321.382 198.149,306.541 198.149,306.541 L224.142,307.718 Z" id="Path" fill="#263238" fill-rule="nonzero"></path>
            <polygon id="Path" fill="#DCEBDF" fill-rule="nonzero" points="264.471 417.641 280.592 417.389 281.386 408.87 263.696 409.562"></polygon>
            <path d="M236.049,236.332 C230.604,235.268 206.049,235.576 206.049,235.576 C203.595,235.509 201.204,236.365 199.351,237.975 C197.497,239.585 196.314,241.832 196.037,244.271 C195.178,251.846 199.988,268.77 200.156,277.4 C200.361,288.001 198.335,292.298 198.129,306.569 L244.988,308.717 C244.988,280.016 243.736,256.255 242.606,244.86 C242.204,240.853 241.495,237.388 236.049,236.332 Z" id="Path" fill="#407BFF" fill-rule="nonzero"></path>
            <path d="M236.049,236.332 C230.604,235.268 206.049,235.576 206.049,235.576 C203.595,235.509 201.204,236.365 199.351,237.975 C197.497,239.585 196.314,241.832 196.037,244.271 C195.178,251.846 199.988,268.77 200.156,277.4 C200.361,288.001 198.335,292.298 198.129,306.569 L244.988,308.717 C244.988,280.016 243.736,256.255 242.606,244.86 C242.204,240.853 241.495,237.388 236.049,236.332 Z" id="Path" fill="#FFFFFF" fill-rule="nonzero" opacity="0.3"></path>
            <path d="M242.467,245.373 C243.933,250.416 245.409,255.6 246.931,260.662 C248.454,265.725 250.013,270.815 251.769,275.606 C252.199,276.83 252.703,277.969 253.114,279.146 L253.833,280.799 L253.927,281.005 L253.927,281.108 L253.927,281.164 L253.927,281.098 C253.765,280.81 253.564,280.546 253.329,280.314 C253.011,280.006 252.89,279.978 252.862,279.978 C253.07,280.165 253.311,280.314 253.572,280.416 C254.029,280.637 254.5,280.827 254.982,280.986 C256.038,281.35 257.224,281.677 258.429,282.004 C263.313,283.247 268.647,284.199 273.84,285.311 L273.672,291.783 C270.884,292.159 268.078,292.387 265.266,292.465 C262.419,292.575 259.569,292.522 256.729,292.306 C255.218,292.198 253.715,292.005 252.227,291.727 C251.442,291.578 250.63,291.391 249.752,291.139 C248.71,290.847 247.707,290.433 246.763,289.906 C246.01,289.474 245.319,288.943 244.708,288.327 C244.241,287.846 243.84,287.306 243.513,286.721 L243.195,286.133 L242.14,284.134 C241.523,282.826 240.851,281.509 240.272,280.211 C239.123,277.586 238.114,274.99 237.105,272.384 C236.097,269.778 235.237,267.172 234.369,264.557 C232.641,259.299 231.081,254.096 229.699,248.679 L242.467,245.373 Z" id="Path" fill="#B55B52" fill-rule="nonzero"></path>
            <path d="M229.158,240.171 C235.565,233.633 243.756,237.201 247.277,249.007 C250.799,260.813 250.163,261.672 250.163,261.672 L232.95,268.35 C228.887,257.105 222.601,246.831 229.158,240.171 Z" id="Path" fill="#3B5CAA" fill-rule="nonzero"></path>
            <path d="M278.416,282.808 L277.043,282.686 C273.139,282.686 272.476,283.751 270.075,285.983 L269.141,290.896 C275.446,294.119 278.827,290.579 278.827,290.579 L284.674,290.579 L282.61,285.909 C282.253,285.063 281.675,284.33 280.937,283.784 C280.2,283.238 279.329,282.901 278.416,282.808 Z" id="Path" fill="#B55B52" fill-rule="nonzero"></path>
            <path d="M200.184,343.369 L260.035,343.369 C261.35,343.369 262.417,342.302 262.417,340.987 L262.417,337.139 C262.417,335.823 261.35,334.757 260.035,334.757 L200.184,334.757 C198.869,334.757 197.802,335.823 197.802,337.139 L197.802,340.987 C197.802,342.302 198.869,343.369 200.184,343.369 Z" id="Path" fill="#407BFF" fill-rule="nonzero"></path>
            <polygon id="Path" fill="#407BFF" fill-rule="nonzero" points="200.454 439.244 197.802 439.244 200.856 343.359 204.527 343.359"></polygon>
            <polygon id="Path" fill="#FFFFFF" fill-rule="nonzero" opacity="0.4" points="200.454 439.244 197.802 439.244 200.856 343.359 204.527 343.359"></polygon>
            <polygon id="Path" fill="#407BFF" fill-rule="nonzero" points="224.85 439.244 227.503 439.244 224.458 343.359 220.787 343.359"></polygon>
            <polygon id="Path" fill="#FFFFFF" fill-rule="nonzero" opacity="0.4" points="224.85 439.244 227.503 439.244 224.458 343.359 220.787 343.359"></polygon>
            <polygon id="Path" fill="#407BFF" fill-rule="nonzero" points="235.368 439.244 232.715 439.244 235.769 343.359 239.44 343.359"></polygon>
            <polygon id="Path" fill="#FFFFFF" fill-rule="nonzero" opacity="0.4" points="235.368 439.244 232.715 439.244 235.769 343.359 239.44 343.359"></polygon>
            <polygon id="Path" fill="#407BFF" fill-rule="nonzero" points="259.763 439.244 262.416 439.244 259.371 343.359 255.7 343.359"></polygon>
            <polygon id="Path" fill="#FFFFFF" fill-rule="nonzero" opacity="0.4" points="259.763 439.244 262.416 439.244 259.371 343.359 255.7 343.359"></polygon>
            <g id="Group" opacity="0.3" transform="translate(200.000000, 343.000000)" fill="#407BFF" fill-rule="nonzero">
                <polygon id="Path" points="0.858 0.359 4.528 0.359 4.351 4.432 0.727 4.432"></polygon>
                <polygon id="Path" points="24.582 4.431 20.958 4.431 20.79 0.359 24.451 0.359"></polygon>
                <polygon id="Path" points="39.433 0.359 39.265 4.431 35.641 4.431 35.771 0.359"></polygon>
                <polygon id="Path" points="59.502 4.431 55.869 4.431 55.701 0.359 59.371 0.359"></polygon>
            </g>
            <path d="M437.325,226.162448 L287.727,226.162448 C286.564,226.174 285.412,225.945 284.343,225.489 C283.273,225.033 282.31,224.36 281.514,223.513 C280.718,222.666 280.106,221.663 279.717,220.568 C279.329,219.472 279.171,218.308 279.255,217.149 L284.962,122.469 C285.141,120.043 286.223,117.773 287.993,116.104 C289.763,114.436 292.094,113.491 294.526,113.455552 L444.088,113.455552 C445.25,113.444 446.402,113.673 447.472,114.129 C448.541,114.585 449.504,115.257 450.3,116.104 C451.096,116.951 451.708,117.954 452.097,119.05 C452.486,120.145 452.643,121.31 452.559,122.469 L446.843,217.186 C446.657,219.598 445.579,221.854 443.819,223.514 C442.06,225.174 439.744,226.118 437.325,226.162448 Z" id="Path" fill="#6F97F6" fill-rule="nonzero"></path>
            <polygon id="Path" fill="#6F97F6" fill-rule="nonzero" points="307.743 206.146 321.538 253.341 362.466 206.146"></polygon>
            <path d="M430.031,188.06427 L346.195,188.06427 C345.543,188.071 344.897,187.942 344.297,187.687 C343.697,187.431 343.157,187.054 342.71,186.579 C342.263,186.105 341.92,185.542 341.702,184.928 C341.483,184.314 341.394,183.661 341.441,183.011 L344.644,129.941 C344.745,128.581 345.351,127.308 346.343,126.373 C347.335,125.437 348.642,124.908 350.006,124.888 L433.841,124.888 C434.495,124.874 435.145,124.998 435.748,125.251 C436.351,125.504 436.894,125.881 437.343,126.357 C437.791,126.833 438.134,127.398 438.35,128.016 C438.565,128.633 438.649,129.289 438.595,129.941 L435.392,183.011 C435.292,184.371 434.686,185.644 433.693,186.579 C432.701,187.514 431.394,188.044 430.031,188.06427 Z" id="Path" fill="#FFFFFF" fill-rule="nonzero" opacity="0.1"></path>
            <path d="M385.18,210.9552 L301.335,210.9552 C300.683,210.961 300.038,210.832 299.44,210.576 C298.841,210.32 298.302,209.942 297.856,209.468 C297.41,208.993 297.068,208.431 296.85,207.818 C296.632,207.204 296.543,206.552 296.59,205.903 L299.793,152.833 C299.894,151.474 300.498,150.202 301.489,149.267 C302.479,148.332 303.783,147.802 305.145,147.78 L388.99,147.78 C389.644,147.767 390.292,147.892 390.894,148.145 C391.496,148.399 392.038,148.776 392.485,149.252 C392.933,149.728 393.275,150.293 393.49,150.91 C393.705,151.527 393.789,152.182 393.735,152.833 L390.532,205.903 C390.431,207.261 389.827,208.533 388.836,209.468 C387.846,210.403 386.542,210.933 385.18,210.9552 Z" id="Path" fill="#FFFFFF" fill-rule="nonzero" opacity="0.1"></path>
            <g id="Group" opacity="0.5" transform="translate(295.000000, 118.000000)" fill="#FFFFFF" fill-rule="nonzero">
                <path d="M5.226,3.694 C5.209,4.411 4.924,5.096 4.428,5.614 C3.932,6.133 3.261,6.447 2.545,6.496 C2.205,6.479 1.872,6.391 1.568,6.237 C1.264,6.083 0.996,5.867 0.781,5.603 C0.566,5.339 0.409,5.032 0.32,4.703 C0.232,4.374 0.213,4.03 0.266,3.694 C0.287,2.978 0.573,2.295 1.068,1.778 C1.563,1.26 2.232,0.945 2.947,0.892 C3.287,0.909 3.62,0.997 3.924,1.151 C4.227,1.305 4.496,1.521 4.71,1.785 C4.925,2.049 5.082,2.356 5.171,2.685 C5.26,3.014 5.278,3.357 5.226,3.694 Z" id="Path"></path>
                <path d="M14.368,3.694 C14.349,4.41 14.064,5.094 13.569,5.612 C13.073,6.13 12.403,6.445 11.688,6.496 C11.347,6.48 11.013,6.393 10.708,6.239 C10.403,6.086 10.134,5.87 9.918,5.606 C9.702,5.341 9.544,5.034 9.455,4.705 C9.365,4.375 9.347,4.031 9.399,3.694 C9.421,2.978 9.706,2.295 10.201,1.778 C10.696,1.26 11.366,0.944 12.08,0.892 C12.42,0.909 12.754,0.997 13.058,1.151 C13.362,1.304 13.631,1.52 13.846,1.784 C14.062,2.048 14.22,2.355 14.31,2.684 C14.4,3.012 14.42,3.357 14.368,3.694 Z" id="Path"></path>
                <path d="M23.577,3.694 C23.561,4.411 23.276,5.096 22.78,5.614 C22.284,6.133 21.613,6.447 20.897,6.496 C20.557,6.479 20.224,6.391 19.92,6.237 C19.616,6.083 19.348,5.867 19.133,5.602 C18.918,5.338 18.761,5.032 18.672,4.703 C18.584,4.374 18.565,4.03 18.618,3.694 C18.639,2.978 18.925,2.295 19.42,1.778 C19.915,1.26 20.584,0.944 21.299,0.892 C21.639,0.908 21.972,0.997 22.275,1.151 C22.579,1.304 22.848,1.521 23.062,1.785 C23.277,2.049 23.434,2.356 23.523,2.684 C23.612,3.013 23.63,3.357 23.577,3.694 Z" id="Path"></path>
            </g>
            <path d="M436.167,225.284246 L286.605,225.284246 C285.412,225.293 284.229,225.055 283.131,224.586 C282.033,224.116 281.045,223.424 280.227,222.554 C279.41,221.684 278.781,220.654 278.381,219.529 C277.98,218.405 277.817,217.209 277.901,216.018 L283.617,121.339 C283.796,118.853 284.901,116.526 286.714,114.816 C288.526,113.106 290.913,112.137 293.405,112.100754 L442.929,112.100754 C444.123,112.092 445.306,112.33 446.403,112.799 C447.501,113.269 448.49,113.961 449.307,114.831 C450.125,115.701 450.753,116.731 451.154,117.856 C451.554,118.98 451.718,120.176 451.634,121.367 L445.927,216.046 C445.746,218.526 444.644,220.848 442.838,222.558 C441.032,224.267 438.653,225.239 436.167,225.284246 Z M293.405,112.577186 C291.029,112.607 288.75,113.527 287.02,115.157 C285.29,116.786 284.236,119.006 284.065,121.376 L278.349,216.056 C278.266,217.184 278.418,218.316 278.796,219.383 C279.174,220.449 279.768,221.425 280.543,222.249 C281.317,223.073 282.254,223.728 283.294,224.172 C284.335,224.615 285.456,224.838 286.587,224.82646 L436.167,224.82646 C438.542,224.795 440.82,223.874 442.549,222.245 C444.279,220.616 445.334,218.397 445.507,216.028 L451.214,121.348 C451.294,120.217 451.138,119.081 450.757,118.013 C450.375,116.945 449.776,115.968 448.998,115.143 C448.219,114.319 447.277,113.665 446.233,113.224 C445.188,112.782 444.063,112.562 442.929,112.577186 L293.405,112.577186 Z" id="Shape" fill="#263238" fill-rule="nonzero" opacity="0.3"></path>
            <path d="M355.182,169.934 C354.547,171.279 353.968,172.428 353.314,173.67 C352.661,174.912 352.007,176.033 351.334,177.201 C349.961,179.526 348.532,181.871 347.001,184.056 C346.228,185.177 345.438,186.288 344.628,187.39 C343.778,188.474 342.975,189.576 342.069,190.631 C340.302,192.819 338.395,194.89 336.362,196.833 C335.849,197.338 335.288,197.767 334.746,198.3 C334.209,198.804 333.641,199.275 333.047,199.71 L331.253,201.064 L330.702,201.447 C330.458,201.602 330.206,201.742 329.946,201.867 C329.433,202.114 328.894,202.302 328.339,202.428 C327.243,202.684 326.103,202.693 325.003,202.454 C323.903,202.215 322.87,201.734 321.979,201.046 C321.537,200.697 321.133,200.302 320.774,199.869 L320.522,199.532 L320.4,199.364 L320.354,199.29 L320.185,198.991 L319.513,197.777 C319.307,197.384 319.167,197.011 318.999,196.628 C318.411,195.218 317.93,193.767 317.561,192.285 C316.911,189.584 316.455,186.84 316.197,184.075 C315.924,181.381 315.806,178.675 315.842,175.968 C315.862,175.2 316.156,174.464 316.67,173.893 C317.184,173.323 317.886,172.955 318.648,172.855 C319.409,172.756 320.182,172.932 320.825,173.352 C321.468,173.772 321.94,174.408 322.156,175.146 L322.156,175.258 C323.394,180.018 324.925,184.697 326.742,189.268 C327.158,190.235 327.642,191.171 328.19,192.07 C328.311,192.257 328.433,192.481 328.554,192.64 L328.909,193.069 L328.993,193.181 L328.946,193.107 L328.844,192.966 C328.697,192.775 328.528,192.603 328.339,192.453 C327.966,192.152 327.533,191.935 327.069,191.818 C326.604,191.719 326.124,191.719 325.659,191.818 C325.417,191.869 325.182,191.947 324.958,192.051 C324.837,192.051 324.734,192.173 324.622,192.229 C324.51,192.285 324.342,192.425 324.463,192.322 L325.631,191.183 C326.023,190.828 326.406,190.398 326.789,189.987 C327.172,189.576 327.564,189.174 327.938,188.735 C331.017,185.042 333.82,181.128 336.325,177.023 C337.604,174.94 338.865,172.82 340.061,170.672 L341.864,167.44 L343.573,164.283 L343.666,164.115 C344.477,162.664 345.817,161.582 347.406,161.096 C348.995,160.609 350.711,160.756 352.195,161.504 C353.679,162.253 354.816,163.546 355.369,165.113 C355.923,166.681 355.849,168.401 355.164,169.915 L355.182,169.934 Z" id="Path" fill="#263238" fill-rule="nonzero"></path>
            <path d="M316.719,175.557 L312.171,172.951 L317.065,167.954 C318.499,169.017 319.829,170.215 321.034,171.531 C321.318,171.832 321.528,172.196 321.646,172.593 C321.764,172.989 321.788,173.408 321.716,173.816 C321.643,174.224 321.476,174.608 321.228,174.94 C320.98,175.271 320.658,175.54 320.287,175.725 C319.723,175.987 319.104,176.108 318.483,176.079 C317.861,176.049 317.256,175.87 316.719,175.557 Z" id="Path" fill="#FFC3BD" fill-rule="nonzero"></path>
            <path d="M311.135,167.6 L313.61,165.835 C313.931,165.601 314.332,165.503 314.726,165.562 C315.119,165.622 315.473,165.834 315.711,166.152 L317.065,167.955 L312.171,172.952 L310.63,169.44 C310.49,169.122 310.464,168.765 310.556,168.43 C310.648,168.095 310.852,167.802 311.135,167.6 Z" id="Path" fill="#FFC3BD" fill-rule="nonzero"></path>
            <path d="M345.384,165.75 C345.755,164.53 346.455,163.435 347.407,162.586 C348.36,161.738 349.528,161.168 350.783,160.94 C352.596,160.539 354.434,160.258 356.284,160.099 C361.855,159.882 367.433,159.982 372.993,160.398 C375.907,160.594 378.887,161.005 381.259,161.398 L381.343,161.398 C382.599,161.606 383.722,162.304 384.464,163.339 C385.207,164.374 385.508,165.661 385.303,166.918 C384.136,173.661 380.708,185.392 380.334,196.46 C379.839,210.993 380.063,219.362 379.811,222.864 L342.405,222.145 C339.799,186.625 343.04,173.792 345.384,165.75 Z" id="Path" fill="#FFFFFF" fill-rule="nonzero"></path>
            <path d="M382.341,160.846 L382.219,160.846 C379.716,160.435 376.615,159.996 373.505,159.791 L371.842,159.697 C370.208,166.46 360.466,177.836 357.515,195.077 C356.375,180.666 355.497,165.6 357.169,159.725 C354.526,159.806 351.888,160.027 349.268,160.389 C347.882,160.702 346.604,161.377 345.564,162.345 C344.523,163.313 343.758,164.539 343.346,165.899 C341.048,172.661 336.659,187.811 339.358,225.059 L380.93,225.059 C381.201,221.323 380.23,213.477 381.734,201.401 C383.181,189.707 385.264,173.791 386.488,166.684 C386.707,165.36 386.394,164.004 385.617,162.91 C384.84,161.817 383.662,161.075 382.341,160.846 Z" id="Path" fill="#263238" fill-rule="nonzero"></path>
            <path d="M356.63,223.116 C356.567,223.119 356.506,223.097 356.459,223.055 C356.412,223.013 356.383,222.955 356.378,222.892 C355.5,212.384 357.144,197.3 357.162,197.142 C357.166,197.11 357.176,197.079 357.191,197.05 C357.207,197.022 357.228,196.997 357.253,196.978 C357.278,196.958 357.307,196.943 357.338,196.934 C357.369,196.925036 357.401,196.923 357.433,196.927 C357.498,196.934 357.558,196.966 357.6,197.017 C357.642,197.067 357.663,197.132 357.657,197.198 C357.657,197.347 355.995,212.394 356.873,222.845 C356.877,222.878 356.874,222.911 356.865,222.942 C356.855,222.974 356.84,223.003 356.819,223.029 C356.798,223.054 356.772,223.075 356.743,223.09 C356.713,223.105 356.681,223.114 356.649,223.116 L356.63,223.116 Z" id="Path" fill="#FFFFFF" fill-rule="nonzero" opacity="0.2"></path>
            <path d="M380.874,175.632 C379.333,182.618 380.155,192.295 381.808,201.121 C383.032,191.211 384.704,178.35 385.927,170.392 C384.218,169.253 382.098,170.056 380.874,175.632 Z" id="Path" fill="#000000" fill-rule="nonzero" opacity="0.3"></path>
            <path d="M357.078,160.053 C361.926,158.988 362.766,155.999 362.421,152.693 C362.335,151.867 362.201,151.047 362.019,150.237 L368.071,145.286 L372.527,141.662 C371.312,147.024 369.977,156.803 373.638,160.455 C373.638,160.455 370.649,165.358 362.337,164.76 C355.313,164.256 357.078,160.053 357.078,160.053 Z" id="Path" fill="#FFC3BD" fill-rule="nonzero"></path>
            <polygon id="Path" fill="#E0E0E0" fill-rule="nonzero" points="364.447 163.527 363.102 164.797 367.398 166.413 366.838 164.779"></polygon>
            <path d="M367.735,168.692 C367.735,168.692 366.044,164.423 364.447,163.517 C367.588,162.768 370.466,161.176 372.769,158.913 L375.319,159.931 C375.319,159.931 376.122,164.881 367.735,168.692 Z" id="Path" fill="#F5F5F5" fill-rule="nonzero"></path>
            <polygon id="Path" fill="#E0E0E0" fill-rule="nonzero" points="362.092 163.19 363.101 164.797 358.581 165.189 359.487 163.76"></polygon>
            <path d="M356.312,167.487 C357.969,165.722 359.927,164.267 362.094,163.19 C359.637,162.462 359.488,159.081 359.488,159.081 L357.106,159.538 C357.106,159.538 352.735,163.788 356.312,167.487 Z" id="Path" fill="#F5F5F5" fill-rule="nonzero"></path>
            <path d="M362.018,150.227 C362.199,151.04 362.333,151.864 362.419,152.693 C364.679,152.282 367.706,149.891 368.023,147.602 C368.13,146.835 368.152,146.058 368.089,145.286 L362.018,150.227 Z" id="Path" fill="#000000" fill-rule="nonzero" opacity="0.2"></path>
            <path d="M354.667,125.783 C352.501,128.445 352.706,138.075 357.292,138.187 C361.878,138.299 358.609,120.927 354.667,125.783 Z" id="Path" fill="#263238" fill-rule="nonzero"></path>
            <path d="M374.421,132.789 C373.963,140.084 374.057,144.371 370.377,148.144 C364.847,153.813 355.881,150.554 354.153,143.297 C352.612,136.759 353.621,125.933 360.747,122.973 C362.303,122.307 364.005,122.054 365.688,122.238 C367.37,122.422 368.977,123.038 370.352,124.025 C371.727,125.012 372.824,126.338 373.537,127.873 C374.25,129.408 374.554,131.102 374.421,132.789 Z" id="Path" fill="#FFC3BD" fill-rule="nonzero"></path>
            <path d="M370.833,126.719 C366.247,131.267 372.206,134.602 369.899,137.049 C374.224,139.309 372.636,140.971 372.636,140.971 C372.188,142.215 372.188,143.576 372.636,144.819 C377.511,143.568 386.562,127.372 376.68,124.888 C370.768,127.522 370.833,126.719 370.833,126.719 Z" id="Path" fill="#263238" fill-rule="nonzero"></path>
            <path d="M372.712,129.988 C368.369,130.66 362.905,128.587 359.515,126.831 C356.124,125.075 355.629,128.39 356.881,129.399 C354.705,129.474 351.949,127.755 352.631,123.917 C353.257,120.414 357.843,117.098 364.371,120.059 C368.995,122.151 374.692,119.396 376.915,121.815 C379.138,124.234 375.608,129.53 372.712,129.988 Z" id="Path" fill="#263238" fill-rule="nonzero"></path>
            <path d="M375.683,125.233 C378.597,124.85 378.718,123.01 377.906,119.787 C381.053,124.261 379.774,125.634 377.906,126.718 C375.823,126.017 375.683,125.233 375.683,125.233 Z" id="Path" fill="#263238" fill-rule="nonzero"></path>
            <path d="M376.384,138.384 C375.738,139.811 374.611,140.965 373.199,141.643 C371.397,142.456 370.481,140.793 370.967,138.841 C371.406,137.076 372.835,134.536 374.703,134.554 C376.571,134.573 377.197,136.581 376.384,138.384 Z" id="Path" fill="#FFC3BD" fill-rule="nonzero"></path>
            <path d="M363.035,134.993 C363.035,135.581 362.717,136.067 362.334,136.076 C361.952,136.086 361.671,135.6 361.671,134.993 C361.671,134.386 361.989,133.919 362.372,133.919 C362.755,133.919 363.035,134.395 363.035,134.993 Z" id="Path" fill="#263238" fill-rule="nonzero"></path>
            <path d="M356.348,135.05 C356.348,135.648 356.03,136.124 355.638,136.133 C355.246,136.143 354.937,135.657 354.947,135.059 C354.956,134.462 355.255,133.985 355.647,133.985 C356.04,133.985 356.348,134.462 356.348,135.05 Z" id="Path" fill="#263238" fill-rule="nonzero"></path>
            <path d="M358.87,135.255 C358.172,137.074 357.229,138.79 356.068,140.355 C356.47,140.637 356.929,140.829 357.413,140.918 C357.897,141.007 358.394,140.99 358.87,140.868 L358.87,135.255 Z" id="Path" fill="#ED847E" fill-rule="nonzero"></path>
            <path d="M361.225,142.465 C361.903,142.389 362.558,142.173 363.148,141.831 C363.738,141.488 364.25,141.027 364.653,140.476 C364.677,140.438 364.686,140.391 364.676,140.346 C364.667,140.302 364.64,140.263 364.601,140.238 C364.563,140.213 364.516,140.205 364.472,140.214 C364.427,140.224 364.388,140.251 364.363,140.289 C363.914,140.876 363.334,141.351 362.669,141.675 C362.004,141.999 361.273,142.164 360.534,142.157 C360.511,142.157 360.488,142.162 360.467,142.171 C360.446,142.18 360.427,142.193 360.411,142.21 C360.396,142.226 360.383,142.246 360.376,142.267 C360.368,142.289 360.364,142.312 360.366,142.335 C360.366,142.358 360.37,142.38 360.379,142.401 C360.388,142.422 360.402,142.441 360.418,142.457 C360.435,142.473 360.454,142.485 360.476,142.493 C360.497,142.501 360.52,142.504 360.543,142.503 C360.786,142.465 361.01,142.465 361.225,142.465 Z" id="Path" fill="#263238" fill-rule="nonzero"></path>
            <path d="M366.278,132.63 C366.337,132.627 366.393,132.604 366.437,132.565 C366.474,132.538 366.506,132.504 366.529,132.464 C366.553,132.425 366.568,132.381 366.575,132.336 C366.581,132.29 366.577,132.244 366.565,132.2 C366.553,132.156 366.531,132.115 366.502,132.079 C366.182,131.637 365.76,131.277 365.273,131.03 C364.786,130.783 364.247,130.656 363.7,130.659 C363.655,130.663 363.611,130.675 363.571,130.696 C363.531,130.717 363.495,130.746 363.467,130.781 C363.438,130.815 363.416,130.856 363.404,130.899 C363.391,130.942 363.387,130.988 363.392,131.033 C363.401,131.126 363.447,131.212 363.518,131.273 C363.589,131.334 363.681,131.365 363.775,131.36 C364.209,131.356 364.637,131.457 365.023,131.656 C365.408,131.854 365.74,132.144 365.989,132.499 C366.023,132.543 366.067,132.577 366.117,132.6 C366.168,132.623 366.223,132.633 366.278,132.63 Z" id="Path" fill="#263238" fill-rule="nonzero"></path>
            <path d="M353.64,132.92 C353.695,132.913 353.748,132.892 353.794,132.859 C353.839,132.827 353.876,132.783 353.901,132.733 C354.08,132.329 354.351,131.973 354.694,131.694 C355.036,131.415 355.44,131.22 355.872,131.127 C355.918,131.123 355.962,131.109 356.002,131.086 C356.042,131.063 356.077,131.033 356.105,130.996 C356.132,130.959 356.151,130.916 356.161,130.871 C356.171,130.826 356.171,130.78 356.162,130.735 C356.146,130.645 356.096,130.564 356.024,130.509 C355.951,130.453 355.86,130.427 355.769,130.436 C355.225,130.543 354.714,130.779 354.278,131.123 C353.843,131.468 353.496,131.911 353.266,132.416 C353.227,132.499 353.222,132.594 353.251,132.681 C353.281,132.769 353.343,132.841 353.425,132.883 C353.492,132.914 353.566,132.927 353.64,132.92 Z" id="Path" fill="#263238" fill-rule="nonzero"></path>
            <path d="M387.601,165.068 C388.74,167.468 389.693,169.738 390.627,172.073 C391.561,174.408 392.392,176.79 393.223,179.171 C394.854,184.025 396.171,188.98 397.165,194.003 C397.38,195.301 397.622,196.572 397.781,197.907 L397.903,198.897 L397.968,199.392 L397.968,199.644 L397.968,199.99 C398.061,200.956 398.061,201.929 397.968,202.895 C397.752,205.009 397.024,207.038 395.848,208.807 C394.745,210.427 393.297,211.783 391.608,212.777 C390.2,213.603 388.685,214.232 387.106,214.645 C385.7,215.03 384.262,215.286 382.809,215.41 C380.07,215.669 377.309,215.56 374.599,215.084 C373.864,214.96 373.195,214.585 372.706,214.023 C372.217,213.46 371.939,212.745 371.919,212 C371.899,211.256 372.139,210.527 372.597,209.939 C373.056,209.351 373.704,208.941 374.431,208.779 L374.767,208.704 C375.701,208.489 376.925,208.228 377.971,207.948 C379.017,207.668 380.082,207.341 381.072,207.014 C382.801,206.46 384.403,205.572 385.789,204.399 C386.155,204.059 386.434,203.636 386.601,203.166 C386.667,202.836 386.667,202.496 386.601,202.166 C386.57,201.915 386.523,201.665 386.461,201.419 L386.125,199.897 C385.91,198.832 385.602,197.73 385.322,196.646 C384.743,194.451 384.089,192.257 383.342,190.052 C382.594,187.848 381.829,185.653 381.016,183.458 C380.203,181.263 379.344,179.068 378.475,176.92 C377.607,174.772 376.692,172.512 375.823,170.466 L375.823,170.373 C375.124,168.815 375.073,167.043 375.681,165.447 C376.289,163.852 377.506,162.563 379.064,161.864 C380.622,161.166 382.394,161.115 383.989,161.722 C385.585,162.33 386.874,163.547 387.573,165.105 L387.601,165.068 Z" id="Path" fill="#263238" fill-rule="nonzero"></path>
            <path d="M371.646,211.47 L367.527,213.45 L374.645,215.981 C374.645,215.981 379.389,214.468 377.092,211.834 L375.812,211.433 C373.757,210.76 372.749,210.835 371.646,211.47 Z" id="Path" fill="#FFC3BD" fill-rule="nonzero"></path>
            <path d="M368.08,218.475 L371.209,219.072 C371.656,219.154 372.118,219.095 372.529,218.903 C372.941,218.71 373.283,218.394 373.506,217.998 L374.646,215.953 L367.529,213.45 L366.595,215.402 C366.45,215.697 366.374,216.021 366.37299,216.35 C366.372,216.679 366.446,217.004 366.589,217.3 C366.732,217.596 366.941,217.856 367.199,218.059 C367.457,218.263 367.758,218.405 368.08,218.475 Z" id="Path" fill="#FFC3BD" fill-rule="nonzero"></path>
        </g>
    </g>
</svg>