<svg width="339" height="196" viewBox="0 0 339 196" fill="none" xmlns="http://www.w3.org/2000/svg">
<path d="M146.21 0.780192L157.9 1.5669C158.354 1.59485 158.791 1.74611 159.164 2.00432C159.538 2.26253 159.833 2.61784 160.019 3.03178L161.251 5.74455C161.518 6.33028 162.001 6.79032 162.6 7.02859C164.066 7.63042 165.488 8.33445 166.856 9.1355C167.402 9.45594 168.048 9.55926 168.667 9.42486L171.601 8.73763C172.043 8.63577 172.504 8.65511 172.936 8.79359C173.368 8.93207 173.755 9.18455 174.055 9.52433L181.77 18.3318C182.069 18.6744 182.27 19.0919 182.349 19.5395C182.429 19.9872 182.385 20.448 182.223 20.8727L181.154 23.6759C180.929 24.2795 180.945 24.9467 181.2 25.5387C181.812 27.0084 182.32 28.5192 182.721 30.0599C182.876 30.6841 183.269 31.2229 183.817 31.561L186.37 33.1434C186.757 33.3814 187.07 33.7203 187.278 34.1235C187.485 34.5268 187.579 34.979 187.547 35.4312L186.769 47.1142C186.739 47.5666 186.586 48.0023 186.326 48.3738C186.065 48.7453 185.708 49.0384 185.293 49.2211L182.576 50.4509C181.993 50.7229 181.534 51.2038 181.29 51.7982C180.694 53.264 179.992 54.6844 179.189 56.0482C178.866 56.5923 178.762 57.239 178.9 57.8567L179.579 60.7775C179.684 61.2188 179.666 61.6805 179.527 62.1124C179.388 62.5444 179.134 62.9301 178.791 63.228L169.971 70.9322C169.63 71.2312 169.213 71.4314 168.766 71.5111C168.319 71.5907 167.859 71.5469 167.435 71.3844L164.619 70.3173C164.023 70.0821 163.359 70.0821 162.763 70.3173C161.29 70.9259 159.777 71.4335 158.235 71.8365C157.612 71.9945 157.073 72.3864 156.732 72.9306L155.147 75.4806C154.907 75.8665 154.566 76.1798 154.161 76.3869C153.755 76.594 153.301 76.687 152.847 76.6562L141.157 75.8785C140.704 75.8486 140.268 75.6966 139.895 75.4386C139.521 75.1806 139.225 74.8264 139.038 74.4136L137.806 71.7009C137.539 71.1151 137.056 70.6551 136.457 70.4168C134.991 69.815 133.569 69.1109 132.201 68.3099C131.656 67.9886 131.009 67.8852 130.39 68.0205L127.465 68.7078C127.023 68.8116 126.561 68.7933 126.129 68.6547C125.697 68.5161 125.31 68.2624 125.011 67.9211L117.287 59.1136C116.99 58.77 116.79 58.3526 116.711 57.9053C116.631 57.4581 116.674 56.9977 116.834 56.5727L117.903 53.7695C118.129 53.169 118.112 52.5045 117.858 51.9158C117.247 50.4453 116.739 48.9347 116.336 47.3945C116.182 46.7704 115.788 46.2315 115.241 45.8934L112.687 44.311C112.301 44.073 111.987 43.7341 111.779 43.3309C111.572 42.9277 111.479 42.4755 111.51 42.0232L112.289 30.3403C112.32 29.8873 112.474 29.4514 112.734 29.0789C112.994 28.7063 113.35 28.411 113.765 28.2243L116.481 27.0036C117.068 26.7368 117.528 26.2541 117.767 25.6562C118.37 24.189 119.075 22.7658 119.877 21.3972C120.2 20.8531 120.307 20.2076 120.176 19.5887L119.488 16.6679C119.384 16.2265 119.402 15.7652 119.541 15.3334C119.68 14.9017 119.933 14.5159 120.275 14.2174L129.095 6.51317C129.436 6.21355 129.852 6.01231 130.299 5.93106C130.746 5.84981 131.206 5.89162 131.631 6.052L134.447 7.11902C135.042 7.35887 135.708 7.35887 136.303 7.11902C137.775 6.50637 139.288 5.99872 140.831 5.59987C141.451 5.43991 141.988 5.05244 142.334 4.51476L143.919 1.96476C144.158 1.5793 144.497 1.26568 144.901 1.05714C145.304 0.848592 145.756 0.752896 146.21 0.780192ZM127.42 37.2849C127.127 41.6555 128.138 46.0147 130.327 49.8111C132.515 53.6075 135.781 56.6707 139.713 58.6131C143.645 60.5555 148.065 61.29 152.414 60.7236C156.764 60.1572 160.848 58.3154 164.149 55.4311C167.451 52.5468 169.821 48.7496 170.961 44.5198C172.101 40.29 171.96 35.8175 170.554 31.6682C169.148 27.5188 166.542 23.8789 163.065 21.2088C159.587 18.5388 155.395 16.9585 151.018 16.6679C145.152 16.2808 139.372 18.2347 134.947 22.1004C130.522 25.9661 127.815 31.4274 127.42 37.2849Z" fill="#6F97F6"/>
<path d="M192.546 50.135L196.558 48.7787C196.77 48.709 196.997 48.6975 197.215 48.7452C197.433 48.7929 197.635 48.8981 197.798 49.0499L198.459 49.6829C198.691 49.8902 198.99 50.006 199.301 50.0084C199.853 50.008 200.403 50.0442 200.95 50.1169C201.107 50.1426 201.269 50.1366 201.424 50.0994C201.58 50.0621 201.726 49.9943 201.855 49.8999L202.598 49.3664C202.781 49.2381 202.995 49.1611 203.218 49.1436C203.441 49.1261 203.664 49.1687 203.865 49.2669L207.66 51.1478C207.859 51.2456 208.029 51.3957 208.15 51.5819C208.271 51.7682 208.339 51.9838 208.348 52.2058V53.11C208.36 53.4229 208.489 53.7198 208.71 53.9419C209.101 54.3291 209.464 54.7431 209.797 55.1808C209.986 55.4271 210.26 55.5946 210.566 55.651L211.472 55.7957C211.692 55.8324 211.897 55.9284 212.067 56.0735C212.236 56.2185 212.362 56.407 212.432 56.6185L213.79 60.6244C213.864 60.8351 213.878 61.062 213.832 61.2805C213.786 61.4989 213.68 61.7004 213.527 61.8632L212.893 62.5233C212.684 62.7537 212.568 63.0533 212.567 63.3643C212.568 63.9147 212.531 64.4644 212.459 65.01C212.432 65.167 212.437 65.3277 212.473 65.4828C212.509 65.638 212.575 65.7846 212.667 65.9143L213.201 66.6558C213.333 66.8351 213.413 67.0473 213.432 67.269C213.452 67.4907 213.409 67.7134 213.31 67.9127L211.426 71.7105C211.329 71.91 211.178 72.0792 210.992 72.2002C210.805 72.3212 210.589 72.3894 210.367 72.3978H209.462C209.15 72.4075 208.855 72.5371 208.637 72.7595C208.243 73.1424 207.829 73.5046 207.397 73.8446C207.15 74.0339 206.982 74.3077 206.926 74.6132L206.781 75.5174C206.744 75.7371 206.648 75.9425 206.503 76.1114C206.358 76.2804 206.169 76.4064 205.957 76.476L201.946 77.8323C201.734 77.9049 201.506 77.918 201.287 77.8702C201.068 77.8224 200.867 77.7154 200.705 77.5611L200.035 76.9371C199.808 76.7228 199.505 76.606 199.193 76.6116C198.645 76.6118 198.097 76.5755 197.554 76.5031C197.397 76.4762 197.236 76.4807 197.08 76.5164C196.925 76.5521 196.778 76.6182 196.648 76.7111L195.906 77.2446C195.724 77.3762 195.51 77.4559 195.287 77.475C195.064 77.4941 194.839 77.452 194.638 77.3531L190.844 75.4722C190.643 75.3737 190.472 75.2222 190.351 75.0342C190.23 74.8462 190.162 74.6287 190.156 74.4052V73.501C190.141 73.1913 190.012 72.8979 189.793 72.6781C189.405 72.2888 189.042 71.875 188.707 71.4393C188.616 71.3142 188.501 71.2083 188.369 71.1276C188.237 71.0469 188.09 70.993 187.937 70.969L187.031 70.8244C186.812 70.7846 186.606 70.6876 186.436 70.5431C186.266 70.3986 186.137 70.2117 186.063 70.0015L184.704 65.9866C184.634 65.7762 184.623 65.5508 184.671 65.3344C184.718 65.1179 184.824 64.9183 184.976 64.7568L185.61 64.0967C185.82 63.8631 185.936 63.5605 185.936 63.2467C185.936 62.6963 185.972 62.1466 186.044 61.601C186.094 61.2827 186.016 60.9577 185.827 60.6967L185.302 59.9552C185.17 59.7759 185.09 59.5637 185.071 59.342C185.052 59.1203 185.094 58.8976 185.193 58.6983L187.077 54.9005C187.174 54.7009 187.324 54.5319 187.511 54.4122C187.698 54.2925 187.914 54.2268 188.136 54.2223H189.042C189.355 54.2103 189.652 54.0812 189.875 53.8606C190.265 53.4727 190.679 53.1102 191.115 52.7755C191.362 52.5862 191.53 52.3123 191.586 52.0068L191.731 51.1026C191.766 50.8824 191.86 50.6758 192.003 50.5052C192.147 50.3347 192.335 50.2067 192.546 50.135ZM194.946 64.7659C195.234 65.6118 195.767 66.3534 196.477 66.8971C197.187 67.4409 198.042 67.7623 198.935 67.8209C199.828 67.8795 200.718 67.6726 201.494 67.2263C202.269 66.78 202.894 66.1144 203.291 65.3135C203.687 64.5125 203.837 63.6122 203.722 62.7261C203.607 61.8401 203.231 61.008 202.642 60.3351C202.054 59.6621 201.278 59.1784 200.415 58.945C199.551 58.7117 198.637 58.7391 197.789 59.0239C197.224 59.2135 196.702 59.5127 196.254 59.9042C195.805 60.2957 195.438 60.7718 195.174 61.3053C194.909 61.8388 194.753 62.4191 194.714 63.0129C194.675 63.6068 194.754 64.2025 194.946 64.7659Z" fill="#6F97F6"/>
<path opacity="0.5" d="M192.546 50.135L196.558 48.7787C196.77 48.709 196.997 48.6975 197.215 48.7452C197.433 48.7929 197.635 48.8981 197.798 49.0499L198.459 49.6829C198.691 49.8902 198.99 50.006 199.301 50.0084C199.853 50.008 200.403 50.0442 200.95 50.1169C201.107 50.1426 201.269 50.1366 201.424 50.0994C201.58 50.0621 201.726 49.9943 201.855 49.8999L202.598 49.3664C202.781 49.2381 202.995 49.1611 203.218 49.1436C203.441 49.1261 203.664 49.1687 203.865 49.2669L207.66 51.1478C207.859 51.2456 208.029 51.3957 208.15 51.5819C208.271 51.7682 208.339 51.9838 208.348 52.2058V53.11C208.36 53.4229 208.489 53.7198 208.71 53.9419C209.101 54.3291 209.464 54.7431 209.797 55.1808C209.986 55.4271 210.26 55.5946 210.566 55.651L211.472 55.7957C211.692 55.8324 211.897 55.9284 212.067 56.0735C212.236 56.2185 212.362 56.407 212.432 56.6185L213.79 60.6244C213.864 60.8351 213.878 61.062 213.832 61.2805C213.786 61.4989 213.68 61.7004 213.527 61.8632L212.893 62.5233C212.684 62.7537 212.568 63.0533 212.567 63.3643C212.568 63.9147 212.531 64.4644 212.459 65.01C212.432 65.167 212.437 65.3277 212.473 65.4828C212.509 65.638 212.575 65.7846 212.667 65.9143L213.201 66.6558C213.333 66.8351 213.413 67.0473 213.432 67.269C213.452 67.4907 213.409 67.7134 213.31 67.9127L211.426 71.7105C211.329 71.91 211.178 72.0792 210.992 72.2002C210.805 72.3212 210.589 72.3894 210.367 72.3978H209.462C209.15 72.4075 208.855 72.5371 208.637 72.7595C208.243 73.1424 207.829 73.5046 207.397 73.8446C207.15 74.0339 206.982 74.3077 206.926 74.6132L206.781 75.5174C206.744 75.7371 206.648 75.9425 206.503 76.1114C206.358 76.2804 206.169 76.4064 205.957 76.476L201.946 77.8323C201.734 77.9049 201.506 77.918 201.287 77.8702C201.068 77.8224 200.867 77.7154 200.705 77.5611L200.035 76.9371C199.808 76.7228 199.505 76.606 199.193 76.6116C198.645 76.6118 198.097 76.5755 197.554 76.5031C197.397 76.4762 197.236 76.4807 197.08 76.5164C196.925 76.5521 196.778 76.6182 196.648 76.7111L195.906 77.2446C195.724 77.3762 195.51 77.4559 195.287 77.475C195.064 77.4941 194.839 77.452 194.638 77.3531L190.844 75.4722C190.643 75.3737 190.472 75.2222 190.351 75.0342C190.23 74.8462 190.162 74.6287 190.156 74.4052V73.501C190.141 73.1913 190.012 72.8979 189.793 72.6781C189.405 72.2888 189.042 71.875 188.707 71.4393C188.616 71.3142 188.501 71.2083 188.369 71.1276C188.237 71.0469 188.09 70.993 187.937 70.969L187.031 70.8244C186.812 70.7846 186.606 70.6876 186.436 70.5431C186.266 70.3986 186.137 70.2117 186.063 70.0015L184.704 65.9866C184.634 65.7762 184.623 65.5508 184.671 65.3344C184.718 65.1179 184.824 64.9183 184.976 64.7568L185.61 64.0967C185.82 63.8631 185.936 63.5605 185.936 63.2467C185.936 62.6963 185.972 62.1466 186.044 61.601C186.094 61.2827 186.016 60.9577 185.827 60.6967L185.302 59.9552C185.17 59.7759 185.09 59.5637 185.071 59.342C185.052 59.1203 185.094 58.8976 185.193 58.6983L187.077 54.9005C187.174 54.7009 187.324 54.5319 187.511 54.4122C187.698 54.2925 187.914 54.2268 188.136 54.2223H189.042C189.355 54.2103 189.652 54.0812 189.875 53.8606C190.265 53.4727 190.679 53.1102 191.115 52.7755C191.362 52.5862 191.53 52.3123 191.586 52.0068L191.731 51.1026C191.766 50.8824 191.86 50.6758 192.003 50.5052C192.147 50.3347 192.335 50.2067 192.546 50.135ZM194.946 64.7659C195.234 65.6118 195.767 66.3534 196.477 66.8971C197.187 67.4409 198.042 67.7623 198.935 67.8209C199.828 67.8795 200.718 67.6726 201.494 67.2263C202.269 66.78 202.894 66.1144 203.291 65.3135C203.687 64.5125 203.837 63.6122 203.722 62.7261C203.607 61.8401 203.231 61.008 202.642 60.3351C202.054 59.6621 201.278 59.1784 200.415 58.945C199.551 58.7117 198.637 58.7391 197.789 59.0239C197.224 59.2135 196.702 59.5127 196.254 59.9042C195.805 60.2957 195.438 60.7718 195.174 61.3053C194.909 61.8388 194.753 62.4191 194.714 63.0129C194.675 63.6068 194.754 64.2025 194.946 64.7659Z" fill="white"/>
<path d="M169.41 93.5569L174.39 84.9393C174.574 84.6187 174.672 84.2557 174.673 83.886C174.673 83.5163 174.578 83.1527 174.395 82.8313C174.212 82.5099 173.948 82.2416 173.63 82.0531C173.311 81.8646 172.949 81.7623 172.579 81.7563H162.618C162.247 81.7596 161.883 81.8602 161.563 82.0481C161.243 82.236 160.978 82.5046 160.794 82.8269C160.611 83.1493 160.516 83.5141 160.518 83.8848C160.52 84.2555 160.62 84.6192 160.807 84.9393L165.787 93.5569C165.978 93.8654 166.244 94.1201 166.561 94.2967C166.878 94.4734 167.235 94.5661 167.598 94.5661C167.961 94.5661 168.318 94.4734 168.635 94.2967C168.952 94.1201 169.219 93.8654 169.41 93.5569Z" fill="#6F97F6"/>
<path d="M6.2236 191.829H128.298C128.717 191.83 129.133 191.747 129.519 191.585C129.905 191.422 130.255 191.184 130.546 190.883C130.838 190.582 131.066 190.226 131.216 189.836C131.367 189.445 131.437 189.028 131.422 188.61L128.534 101.458C128.495 100.595 128.127 99.7808 127.505 99.1806C126.884 98.5805 126.057 98.2402 125.192 98.2296H3.12667C2.70638 98.2268 2.28989 98.3092 1.90242 98.4718C1.51496 98.6344 1.16458 98.8739 0.872502 99.1757C0.580426 99.4775 0.352729 99.8354 0.203201 100.228C0.0536739 100.62 -0.0145733 101.038 0.00259129 101.458L2.88218 188.61C2.91714 189.473 3.284 190.289 3.90639 190.889C4.52879 191.488 5.35877 191.825 6.2236 191.829Z" fill="#6F97F6"/>
<path d="M7.21969 191.829H129.294C129.714 191.83 130.129 191.747 130.515 191.585C130.901 191.422 131.251 191.184 131.542 190.883C131.834 190.582 132.062 190.226 132.213 189.836C132.363 189.445 132.433 189.028 132.419 188.61L129.53 101.458C129.491 100.595 129.123 99.7808 128.502 99.1806C127.88 98.5804 127.053 98.2402 126.188 98.2295H4.12278C3.70285 98.228 3.28694 98.3113 2.90007 98.4744C2.51319 98.6374 2.16332 98.8769 1.87151 99.1785C1.57969 99.48 1.35194 99.8374 1.20195 100.229C1.05195 100.621 0.982814 101.039 0.998686 101.458L3.88734 188.61C3.92222 189.471 4.28781 190.286 4.90827 190.885C5.52873 191.485 6.35644 191.823 7.21969 191.829Z" fill="#6F97F6"/>
<g opacity="0.6">
<path opacity="0.6" d="M7.21969 191.829H129.294C129.714 191.83 130.129 191.747 130.515 191.585C130.901 191.422 131.251 191.184 131.542 190.883C131.834 190.582 132.062 190.226 132.213 189.836C132.363 189.445 132.433 189.028 132.419 188.61L129.53 101.458C129.491 100.595 129.123 99.7808 128.502 99.1806C127.88 98.5804 127.053 98.2402 126.188 98.2295H4.12278C3.70285 98.228 3.28694 98.3113 2.90007 98.4744C2.51319 98.6374 2.16332 98.8769 1.87151 99.1785C1.57969 99.48 1.35194 99.8374 1.20195 100.229C1.05195 100.621 0.982814 101.039 0.998686 101.458L3.88734 188.61C3.92222 189.471 4.28781 190.286 4.90827 190.885C5.52873 191.485 6.35644 191.823 7.21969 191.829Z" fill="#263238"/>
</g>
<path d="M8.79528 191.676H156.225C156.95 191.676 157.661 191.879 158.275 192.263C158.89 192.647 159.385 193.195 159.702 193.846C159.784 194.016 159.82 194.204 159.809 194.393C159.797 194.581 159.738 194.763 159.637 194.923C159.535 195.082 159.395 195.212 159.229 195.303C159.063 195.393 158.877 195.439 158.688 195.438H6.33223C6.14256 195.441 5.95524 195.395 5.78802 195.306C5.62081 195.216 5.47925 195.086 5.37676 194.926C5.27427 194.767 5.21425 194.584 5.20239 194.395C5.19053 194.206 5.22722 194.017 5.30898 193.846C5.62805 193.194 6.12407 192.646 6.74049 192.262C7.3569 191.878 8.0689 191.675 8.79528 191.676Z" fill="#6F97F6"/>
<path opacity="0.6" d="M156.225 191.676H38.578C37.8516 191.675 37.1396 191.878 36.5232 192.262C35.9068 192.646 35.4108 193.194 35.0917 193.846C35.0099 194.017 34.9732 194.206 34.9851 194.395C34.997 194.584 35.057 194.767 35.1595 194.926C35.262 195.086 35.4035 195.216 35.5707 195.306C35.738 195.395 35.9253 195.441 36.1149 195.438H158.688C158.877 195.439 159.063 195.393 159.229 195.303C159.395 195.212 159.535 195.082 159.637 194.923C159.738 194.763 159.797 194.581 159.809 194.393C159.82 194.204 159.783 194.016 159.702 193.846C159.384 193.195 158.89 192.647 158.275 192.263C157.66 191.879 156.95 191.676 156.225 191.676Z" fill="#263238"/>
<path opacity="0.3" d="M85.9014 194.062H116.508C116.872 194.064 117.22 194.21 117.476 194.468C117.732 194.725 117.876 195.073 117.876 195.436H84.525C84.525 195.072 84.67 194.722 84.9281 194.465C85.1862 194.207 85.5363 194.062 85.9014 194.062Z" fill="white"/>
<path opacity="0.9" d="M129.503 185.454L126.786 104.614C126.77 104.278 126.626 103.961 126.384 103.727C126.141 103.493 125.819 103.361 125.482 103.357H5.12783C4.96182 103.355 4.79725 103.388 4.64448 103.453C4.49171 103.518 4.35403 103.613 4.24008 103.734C4.12614 103.855 4.03839 103.997 3.98234 104.153C3.9263 104.309 3.90317 104.475 3.91442 104.641L6.63101 185.481C6.64269 185.817 6.78398 186.135 7.02532 186.37C7.26666 186.604 7.58936 186.736 7.92592 186.738H128.362C128.521 186.729 128.677 186.688 128.821 186.619C128.965 186.549 129.093 186.452 129.199 186.333C129.305 186.213 129.387 186.074 129.439 185.923C129.491 185.773 129.512 185.613 129.503 185.454Z" fill="white"/>
<path d="M30.2839 186.711H13.6855L32.8194 103.357H49.4178L30.2839 186.711Z" fill="white"/>
<path d="M40.8601 186.711H34.8836L54.0175 103.357H59.994L40.8601 186.711Z" fill="white"/>
<path d="M101.92 186.711H95.9438L115.078 103.357H121.045L101.92 186.711Z" fill="white"/>
<path opacity="0.4" d="M64.2955 100.934C64.3179 101.179 64.4302 101.407 64.6107 101.574C64.7913 101.741 65.0274 101.835 65.2735 101.839C65.5137 101.839 65.744 101.743 65.9138 101.574C66.0836 101.404 66.179 101.174 66.179 100.934C66.1607 100.688 66.0497 100.458 65.8682 100.29C65.6867 100.122 65.4484 100.029 65.2011 100.03C64.9609 100.03 64.7306 100.125 64.5608 100.295C64.3909 100.464 64.2955 100.694 64.2955 100.934Z" fill="white"/>
<path d="M103.161 92.0349C104.764 94.603 106.493 97.3248 108.223 99.9471C109.952 102.569 111.727 105.192 113.538 107.76C117.052 112.862 120.853 117.762 124.921 122.436C126.832 124.618 128.905 126.652 131.124 128.522L131.902 129.136C132.073 129.282 132.251 129.418 132.437 129.543C132.906 129.851 133.393 130.132 133.895 130.384C135.117 130.978 136.382 131.48 137.68 131.885C139.047 132.347 140.487 132.79 141.954 133.124C143.421 133.459 144.933 133.848 146.481 134.164C149.515 134.806 152.684 135.394 155.736 135.918V142.248C153.997 142.501 152.367 142.628 150.674 142.745C148.981 142.863 147.306 142.908 145.603 142.917C142.127 142.929 138.656 142.654 135.226 142.094C133.368 141.772 131.537 141.313 129.747 140.72C128.746 140.377 127.771 139.96 126.831 139.472C126.333 139.237 125.808 138.902 125.301 138.568L124.133 137.754C121.251 135.639 118.555 133.283 116.074 130.71C111.401 125.84 107.077 120.649 103.134 115.175C101.172 112.492 99.2821 109.779 97.465 107.036C95.654 104.251 93.8429 101.521 92.1586 98.5546L103.161 92.0349Z" fill="#FFC3BD"/>
<path d="M87.9206 93.7904C87.0151 101.73 105.968 120.701 105.968 120.701L118.79 110.013C115.033 103.663 110.874 97.5593 106.339 91.7377C99.0496 82.7223 88.9077 84.8111 87.9206 93.7904Z" fill="#6F97F6"/>
<path opacity="0.3" d="M98.28 99.4247C93.2181 93.9992 90.8003 92.5976 87.8845 94.7588C88.2739 103.141 105.995 120.684 105.995 120.684C107.154 111.686 102.563 105.899 98.28 99.4247Z" fill="black"/>
<path d="M117.749 106.349L119.098 110.256L104.754 122.011L101.92 119.072L117.749 106.349Z" fill="#6F97F6"/>
<path opacity="0.3" d="M117.749 106.349L119.098 110.256L104.754 122.011L101.92 119.072L117.749 106.349Z" fill="#263238"/>
<path d="M155.057 135.792L165.017 137.502L159.539 146.237C158.235 146.445 153.037 143.632 150.737 140.142L155.057 135.792Z" fill="#FFC3BD"/>
<path d="M171.13 143.397L167.155 147.9L159.53 146.191L165 137.501L171.13 143.397Z" fill="#FFC3BD"/>
<path d="M98.2346 86.185C98.2346 86.185 109.101 111.703 101.277 159.231H56.0006C55.4482 152.295 58.6357 118.449 50.8028 85.7509C55.7872 84.7853 60.8299 84.1479 65.898 83.8429C72.3068 83.4719 78.7318 83.4719 85.1406 83.8429C89.5592 84.2854 93.9369 85.0684 98.2346 86.185Z" fill="#6F97F6"/>
<path opacity="0.3" d="M60.918 93.7904C61.8235 99.2159 60.6101 112.038 55.9919 126.922C55.6381 114.156 54.1502 101.447 51.5457 88.9436V88.8803C54.4978 88.6361 60.0215 88.7808 60.918 93.7904Z" fill="black"/>
<path d="M67.0482 62.2034C68.4789 68.3885 70.0817 79.7188 65.8982 83.8422C65.8982 83.8422 67.7092 88.9602 79.2095 88.9602C91.8869 88.9602 85.1407 83.8422 85.1407 83.8422C78.1772 82.1964 78.1772 77.0784 79.2095 72.2768L67.0482 62.2034Z" fill="#FFC3BD"/>
<path d="M79.9885 89.441L82.7051 92.3075C82.7875 92.392 82.8421 92.4997 82.8615 92.616C82.8809 92.7324 82.8642 92.8519 82.8137 92.9585L81.4555 95.7889C81.4118 95.8853 81.342 95.9677 81.254 96.0268C81.1661 96.0859 81.0634 96.1194 80.9574 96.1234L78.9018 96.2229C78.804 96.2269 78.7069 96.2057 78.6196 96.1614C78.5324 96.117 78.4581 96.051 78.4038 95.9697L76.5022 93.257C76.4258 93.1552 76.3845 93.0315 76.3845 92.9043C76.3845 92.7771 76.4258 92.6534 76.5022 92.5516L79.1101 89.4681C79.1616 89.402 79.2271 89.3479 79.3019 89.31C79.3767 89.272 79.459 89.2509 79.5429 89.2483C79.6268 89.2457 79.7102 89.2617 79.7873 89.295C79.8643 89.3283 79.933 89.3781 79.9885 89.441Z" fill="white"/>
<path d="M79.5444 88.9624C78.2374 91.0622 77.4807 93.4566 77.3439 95.9252C77.3439 95.9252 62.6472 90.9066 63.3173 83.564C64.6225 82.9321 65.8787 82.2037 67.0752 81.3848C67.0752 81.3848 67.5552 86.0236 79.5444 88.9624Z" fill="#263238"/>
<path d="M79.5447 88.9603C80.852 90.9513 81.7934 93.159 82.3247 95.48C82.3247 95.48 89.1343 90.8231 87.1964 83.5619L83.194 82.7029C83.194 82.7029 84.0361 87.3869 79.5447 88.9603Z" fill="#263238"/>
<path d="M81.2108 95.8155C82.1163 98.8177 88.944 121.08 89.116 126.406C89.1205 126.452 89.1205 126.497 89.116 126.542C88.4822 129.409 85.6388 134.436 84.4797 136.408C84.4352 136.485 84.3697 136.549 84.2907 136.592C84.2117 136.634 84.1223 136.654 84.0327 136.648C83.943 136.643 83.8568 136.612 83.7838 136.56C83.7107 136.508 83.6538 136.436 83.6195 136.353C82.8226 134.409 80.9029 129.752 79.6351 127.03C79.6118 126.979 79.5965 126.924 79.5899 126.868C78.9922 117.147 78.8292 102.028 78.5304 95.9873C78.5267 95.9222 78.5364 95.8569 78.5588 95.7956C78.5813 95.7343 78.616 95.6782 78.661 95.6308C78.7059 95.5834 78.7601 95.5456 78.8201 95.5199C78.8802 95.4941 78.9449 95.4809 79.0103 95.481H80.758C80.8591 95.482 80.9574 95.5149 81.0387 95.5749C81.12 95.635 81.1802 95.7192 81.2108 95.8155Z" fill="white"/>
<path opacity="0.2" d="M72.0106 66.3103L79.2096 72.2693C78.949 73.3893 78.7884 74.5301 78.7296 75.6784C76.0764 75.2986 72.3909 72.414 71.9834 69.656C71.784 68.5488 71.7932 67.4142 72.0106 66.3103Z" fill="black"/>
<path d="M84.7788 43.8202C86.4902 45.0952 89.4151 50.4846 85.6843 51.8952C81.9535 53.3059 80.5861 40.6915 84.7788 43.8202Z" fill="#263238"/>
<path d="M64.8206 54.7891C66.532 63.0268 67.1206 67.9188 71.9471 71.7077C73.5025 72.9583 75.3707 73.7603 77.3497 74.0269C79.3287 74.2935 81.343 74.0145 83.1746 73.2201C85.0062 72.4257 86.5854 71.1462 87.7412 69.5201C88.8969 67.8939 89.5853 65.9831 89.7317 63.9944C90.4381 56.3534 87.5041 44.1731 78.8654 41.7678C77.0094 41.1999 75.0366 41.129 73.1446 41.5624C71.2527 41.9958 69.508 42.9181 68.0854 44.237C66.6629 45.5558 65.6125 47.2249 65.0395 49.0769C64.4665 50.9289 64.391 52.8987 64.8206 54.7891Z" fill="#FFC3BD"/>
<path d="M65.8982 60.9926L69.3573 58.6867L69.5837 56.6793C69.9015 53.7687 69.3568 50.8289 68.0171 48.2245C68.0171 48.2245 84.8329 48.8484 86.9156 43.5947C88.9983 38.341 83.0761 34.3894 83.0761 34.3894C83.0761 34.3894 77.1268 37.7984 73.1153 38.0697C69.1038 38.341 56.8157 33.3314 56.8157 43.7032C51.3825 45.3761 51.5636 54.3011 65.871 60.9926" fill="#263238"/>
<path d="M57.4226 44.1111C57.4226 44.1111 55.195 42.3478 56.8521 36.9585C54.8147 37.9713 53.8367 43.4782 57.4226 44.1111Z" fill="#263238"/>
<path d="M62.3846 64.3479C63.7544 65.9832 65.6978 67.0344 67.8178 67.2868C70.6249 67.5852 71.4399 64.999 70.2265 62.6208C69.1036 60.4868 66.2965 57.7559 63.7066 58.5607C61.1168 59.3655 60.7093 62.3134 62.3846 64.3479Z" fill="#FFC3BD"/>
<path d="M105.099 186.712H76.1672C73.5683 171.032 71.4766 159.231 71.4766 159.231H101.278C101.278 159.231 102.953 170.833 105.099 186.712Z" fill="#263238"/>
<path d="M57.105 186.712C56.453 171.032 55.964 159.231 55.964 159.231H85.1765C85.1765 159.231 85.3214 171.177 85.3847 186.712H57.105Z" fill="#263238"/>
<path d="M77.7967 55.7214C77.8963 56.3996 78.3309 56.906 78.7747 56.8608C79.2184 56.8156 79.4991 56.2187 79.3995 55.5496C79.2999 54.8805 78.8652 54.365 78.4215 54.4102C77.9778 54.4554 77.6971 55.0432 77.7967 55.7214Z" fill="#263238"/>
<path d="M85.4666 54.9082C85.5663 55.5864 86.0009 56.0927 86.4446 56.0385C86.8883 55.9842 87.1691 55.4055 87.0694 54.7364C86.9698 54.0672 86.5352 53.5518 86.0915 53.597C85.6478 53.6422 85.367 54.2028 85.4666 54.9082Z" fill="#263238"/>
<path d="M83.0761 55.4844C84.1875 57.4653 85.5578 59.2898 87.151 60.9099C86.1187 62.1578 83.9998 61.8684 83.9998 61.8684L83.0761 55.4844Z" fill="#ED847E"/>
<path d="M80.8846 63.949C81.3512 63.9985 81.8217 63.9985 82.2882 63.949C82.3144 63.9467 82.3399 63.9393 82.3632 63.9271C82.3865 63.915 82.4072 63.8983 82.424 63.8781C82.4409 63.858 82.4535 63.8347 82.4613 63.8096C82.4691 63.7845 82.4718 63.7581 82.4693 63.732C82.4625 63.6784 82.4351 63.6295 82.3928 63.5957C82.3505 63.562 82.2968 63.546 82.2429 63.5511C81.3898 63.6595 80.5232 63.5707 79.7099 63.2916C78.8967 63.0126 78.1585 62.5506 77.5523 61.9415C77.535 61.9214 77.514 61.9048 77.4903 61.8927C77.4666 61.8806 77.4408 61.8733 77.4143 61.8712C77.3878 61.8691 77.3612 61.8723 77.3359 61.8805C77.3106 61.8886 77.2872 61.9017 77.267 61.9189C77.2468 61.9362 77.2302 61.9572 77.2181 61.9808C77.206 62.0044 77.1987 62.0302 77.1966 62.0567C77.1945 62.0831 77.1977 62.1097 77.2058 62.135C77.214 62.1602 77.2271 62.1836 77.2444 62.2038C78.2109 63.1999 79.5018 63.8187 80.8846 63.949Z" fill="#263238"/>
<path d="M75.0263 53.5158C75.1037 53.5254 75.1822 53.5116 75.2516 53.4761C75.321 53.4406 75.3782 53.3852 75.4157 53.3169C75.648 52.8797 75.9841 52.5061 76.3946 52.2286C76.805 51.9512 77.2773 51.7784 77.77 51.7254C77.8765 51.7184 77.976 51.67 78.0472 51.5905C78.1183 51.511 78.1553 51.4068 78.1504 51.3004C78.148 51.2481 78.1354 51.1968 78.1132 51.1494C78.091 51.102 78.0597 51.0595 78.021 51.0242C77.9823 50.9889 77.937 50.9616 77.8877 50.9438C77.8385 50.9261 77.7862 50.9182 77.7338 50.9206C77.1061 50.9828 76.5031 51.1974 75.9775 51.5458C75.4519 51.8941 75.0196 52.3655 74.7184 52.919C74.6913 52.9651 74.6737 53.0161 74.6668 53.0691C74.6599 53.1221 74.6637 53.176 74.6781 53.2274C74.6924 53.2789 74.7171 53.327 74.7504 53.3688C74.7838 53.4105 74.8253 53.4452 74.8723 53.4706C74.9188 53.499 74.9719 53.5146 75.0263 53.5158Z" fill="#263238"/>
<path d="M88.3369 51.8954C88.4331 51.9028 88.5289 51.8772 88.6086 51.8231C88.6943 51.7628 88.7534 51.6718 88.7737 51.5691C88.7939 51.4663 88.7737 51.3597 88.7173 51.2715C88.3731 50.728 87.9065 50.2724 87.3546 49.9412C86.8028 49.6099 86.1809 49.4121 85.5389 49.3635C85.4338 49.3634 85.3329 49.4038 85.2569 49.4763C85.181 49.5487 85.136 49.6476 85.1314 49.7524C85.1313 49.8587 85.173 49.9609 85.2475 50.0369C85.322 50.113 85.4233 50.1569 85.5298 50.1593C86.041 50.2073 86.5343 50.3727 86.9709 50.6425C87.4076 50.9123 87.7759 51.2792 88.0472 51.7146C88.0803 51.7631 88.1232 51.8042 88.1731 51.8353C88.223 51.8665 88.2788 51.8869 88.3369 51.8954Z" fill="#263238"/>
<path d="M59.451 98.4559L57.4408 101.928C56.7646 103.134 56.1036 104.34 55.4576 105.545C54.1537 107.957 52.904 110.386 51.7087 112.834C50.5315 115.284 49.4087 117.744 48.4035 120.221C47.9236 121.451 47.4346 122.69 47.0181 123.929L46.3751 125.782L45.8409 127.591L45.7051 128.052L45.6326 128.287C45.6326 128.369 45.6326 128.287 45.6326 128.341C45.6326 128.396 45.6326 128.441 45.5692 128.54C45.5322 128.895 45.5322 129.253 45.5692 129.607C45.6827 130.683 45.9073 131.743 46.2393 132.772C47.0342 135.249 48.0025 137.666 49.137 140.006C51.428 144.916 54.2171 149.872 56.9608 154.71L51.9532 158.616C49.8162 156.473 47.8964 154.294 46.0129 151.997C44.1294 149.7 42.3908 147.313 40.6794 144.763C38.9361 142.158 37.4212 139.408 36.1517 136.543C35.428 134.909 34.8699 133.206 34.4855 131.461C34.2604 130.406 34.1451 129.33 34.1414 128.251C34.1341 127.603 34.1825 126.956 34.2863 126.316L34.3587 125.846L34.4221 125.556L34.5398 124.969C35.1266 121.904 35.9223 118.883 36.9214 115.926C37.8813 113.014 39.0041 110.211 40.1994 107.444C41.3947 104.677 42.7077 102.019 44.1113 99.3601C44.8176 98.049 45.533 96.7468 46.2846 95.4447C47.0362 94.1426 47.7787 92.9128 48.6752 91.5293L59.451 98.4559Z" fill="#FFC3BD"/>
<path d="M50.8122 85.7509C42.8435 86.9173 34.6303 114.624 34.6303 114.624L51.7811 124.109C51.7811 124.109 58.7265 110.925 62.0408 101.141C65.5089 90.887 59.3513 84.503 50.8122 85.7509Z" fill="#6F97F6"/>
<path d="M34.983 110.718L34.2586 114.787L51.8803 124.471L54.2256 121.117L34.983 110.718Z" fill="#6F97F6"/>
<path opacity="0.3" d="M34.983 110.718L34.2586 114.787L51.8803 124.471L54.2256 121.117L34.983 110.718Z" fill="#263238"/>
<path d="M54.6787 152.828L63.1002 151.363L58.7808 161.102C58.7808 161.102 51.0838 161.056 51.4369 157.096L54.6787 152.828Z" fill="#FFC3BD"/>
<path d="M69.3932 156.255L65.427 164.122L58.7803 161.102L63.0997 151.363L69.3932 156.255Z" fill="#FFC3BD"/>
<path d="M332.776 191.831H210.701C210.282 191.832 209.867 191.749 209.48 191.587C209.094 191.424 208.745 191.185 208.453 190.885C208.161 190.584 207.933 190.228 207.783 189.837C207.632 189.447 207.562 189.03 207.577 188.611L210.465 101.459C210.505 100.597 210.873 99.7825 211.494 99.1824C212.115 98.5822 212.943 98.2419 213.807 98.2313H335.873C336.293 98.2285 336.709 98.3109 337.097 98.4735C337.484 98.6362 337.835 98.8756 338.127 99.1774C338.419 99.4793 338.646 99.8371 338.796 100.229C338.946 100.622 339.014 101.04 338.997 101.459L336.117 188.611C336.082 189.474 335.715 190.291 335.093 190.89C334.47 191.49 333.64 191.827 332.776 191.831Z" fill="#6F97F6"/>
<path opacity="0.6" d="M332.776 191.831H210.701C210.282 191.832 209.867 191.749 209.48 191.587C209.094 191.424 208.745 191.185 208.453 190.885C208.161 190.584 207.933 190.228 207.783 189.837C207.632 189.447 207.562 189.03 207.577 188.611L210.465 101.459C210.505 100.597 210.873 99.7825 211.494 99.1824C212.115 98.5822 212.943 98.2419 213.807 98.2313H335.873C336.293 98.2285 336.709 98.3109 337.097 98.4735C337.484 98.6362 337.835 98.8756 338.127 99.1774C338.419 99.4793 338.646 99.8371 338.796 100.229C338.946 100.622 339.014 101.04 338.997 101.459L336.117 188.611C336.082 189.474 335.715 190.291 335.093 190.89C334.47 191.49 333.64 191.827 332.776 191.831Z" fill="#263238"/>
<path d="M331.78 191.831H209.705C209.286 191.832 208.871 191.749 208.484 191.586C208.098 191.424 207.749 191.185 207.457 190.885C207.165 190.584 206.937 190.228 206.787 189.837C206.636 189.447 206.566 189.03 206.581 188.611L209.469 101.459C209.509 100.597 209.877 99.7825 210.498 99.1823C211.119 98.5821 211.947 98.2419 212.811 98.2312H334.877C335.297 98.2297 335.712 98.313 336.099 98.4761C336.486 98.6391 336.836 98.8787 337.128 99.1802C337.42 99.4817 337.647 99.8391 337.797 100.231C337.947 100.622 338.017 101.04 338.001 101.459L335.112 188.611C335.077 189.473 334.712 190.288 334.091 190.887C333.471 191.486 332.643 191.824 331.78 191.831Z" fill="#6F97F6"/>
<path d="M330.204 191.676H182.774C182.049 191.676 181.339 191.879 180.724 192.263C180.109 192.647 179.615 193.195 179.297 193.846C179.216 194.016 179.179 194.205 179.19 194.393C179.202 194.581 179.261 194.763 179.363 194.923C179.464 195.082 179.604 195.213 179.77 195.303C179.936 195.393 180.122 195.439 180.311 195.438H332.667C332.857 195.441 333.044 195.395 333.211 195.306C333.378 195.217 333.52 195.086 333.622 194.927C333.725 194.767 333.785 194.584 333.797 194.395C333.809 194.206 333.772 194.017 333.69 193.846C333.371 193.195 332.875 192.646 332.259 192.262C331.642 191.878 330.93 191.675 330.204 191.676Z" fill="#6F97F6"/>
<path opacity="0.6" d="M330.204 191.676H307.566C306.84 191.675 306.128 191.878 305.511 192.262C304.895 192.646 304.399 193.195 304.08 193.846C303.998 194.017 303.961 194.206 303.973 194.395C303.985 194.584 304.045 194.767 304.147 194.927C304.25 195.086 304.391 195.217 304.559 195.306C304.726 195.395 304.913 195.441 305.103 195.438H332.622C332.812 195.441 332.999 195.395 333.166 195.306C333.333 195.217 333.475 195.086 333.577 194.927C333.68 194.767 333.74 194.584 333.752 194.395C333.764 194.206 333.727 194.017 333.645 193.846C333.33 193.201 332.841 192.657 332.233 192.274C331.625 191.891 330.923 191.684 330.204 191.676Z" fill="#263238"/>
<path opacity="0.2" d="M253.098 194.064H222.491C222.128 194.066 221.78 194.212 221.524 194.47C221.268 194.727 221.124 195.075 221.124 195.438H254.475C254.475 195.074 254.33 194.724 254.071 194.467C253.813 194.209 253.463 194.064 253.098 194.064Z" fill="black"/>
<path opacity="0.9" d="M209.497 185.458L212.213 104.617C212.229 104.281 212.373 103.964 212.616 103.731C212.858 103.497 213.18 103.365 213.517 103.36H333.953C334.117 103.359 334.279 103.391 334.43 103.454C334.58 103.517 334.717 103.611 334.83 103.728C334.944 103.846 335.032 103.985 335.09 104.138C335.148 104.291 335.174 104.454 335.166 104.617L332.45 185.458C332.438 185.794 332.297 186.112 332.056 186.346C331.814 186.58 331.491 186.712 331.155 186.715H210.719C210.555 186.716 210.393 186.684 210.241 186.621C210.09 186.558 209.953 186.465 209.839 186.347C209.725 186.23 209.635 186.09 209.577 185.937C209.518 185.784 209.491 185.621 209.497 185.458Z" fill="white"/>
<path d="M295.115 186.715H278.516L297.65 103.36H314.249L295.115 186.715Z" fill="white"/>
<path d="M223.043 186.715H217.067L236.201 103.36H242.168L223.043 186.715Z" fill="white"/>
<path d="M308.725 186.715H302.748L321.882 103.36H327.859L308.725 186.715Z" fill="white"/>
<path opacity="0.4" d="M274.704 100.935C274.682 101.18 274.57 101.408 274.389 101.575C274.208 101.742 273.972 101.836 273.726 101.84C273.486 101.84 273.256 101.744 273.086 101.575C272.916 101.405 272.821 101.175 272.821 100.935C272.839 100.689 272.95 100.459 273.132 100.291C273.313 100.123 273.551 100.03 273.799 100.031C274.039 100.031 274.269 100.126 274.439 100.296C274.609 100.465 274.704 100.695 274.704 100.935Z" fill="black"/>
<path d="M265.902 62.207C264.481 68.3921 262.869 79.7224 267.061 83.8458C267.061 83.8458 265.25 88.9639 253.75 88.9639C241.073 88.9639 247.819 83.8458 247.819 83.8458C254.782 82.2001 254.782 77.082 253.741 72.2804L265.902 62.207Z" fill="#B55B52"/>
<path d="M284.33 91.5857C285.235 92.9692 285.978 94.1809 286.72 95.5011C287.463 96.8213 288.196 98.1054 288.903 99.4165C290.297 102.057 291.619 104.743 292.815 107.501C294.01 110.259 295.133 113.071 296.084 115.982C297.086 118.939 297.884 121.96 298.474 125.025L298.592 125.613L298.646 125.902L298.728 126.372C298.822 127.013 298.871 127.66 298.873 128.307C298.86 129.386 298.745 130.461 298.528 131.518C298.141 133.263 297.58 134.966 296.853 136.599C295.587 139.466 294.072 142.217 292.326 144.819C290.641 147.342 288.866 149.729 286.983 152.053C285.115 154.358 283.133 156.567 281.043 158.672L276.044 154.766C278.761 149.928 281.577 144.973 283.868 140.063C285 137.722 285.965 135.305 286.757 132.829C287.089 131.8 287.313 130.739 287.427 129.664C287.467 129.309 287.467 128.951 287.427 128.597C287.427 128.497 287.427 128.407 287.354 128.398V128.344L287.291 128.109L287.155 127.647L286.612 125.839L285.978 123.985C285.552 122.746 285.072 121.507 284.583 120.278C283.578 117.8 282.455 115.34 281.287 112.89C280.119 110.439 278.833 108.016 277.538 105.602C276.898 104.396 276.237 103.19 275.555 101.985L273.545 98.5213L284.33 91.5857Z" fill="#B65B52"/>
<path d="M282.147 85.7528C290.116 86.9193 298.32 114.626 298.32 114.626L281.179 124.111C281.179 124.111 274.224 110.972 270.919 101.143C267.442 90.889 273.635 84.5049 282.147 85.7528Z" fill="#263238"/>
<path opacity="0.3" d="M276.959 100.937L275.664 112.782C276.959 115.631 278.227 118.208 279.214 120.242C279.585 115.495 279.576 107.773 276.959 100.937Z" fill="black"/>
<path d="M297.967 110.72L298.701 114.79L281.079 124.474L278.734 121.119L297.967 110.72Z" fill="#6F97F6"/>
<path opacity="0.3" d="M297.967 110.72L298.701 114.79L281.079 124.474L278.734 121.119L297.967 110.72Z" fill="#263238"/>
<path d="M278.281 152.831L269.85 151.366L274.179 161.105C274.179 161.105 281.867 161.06 281.513 157.099L278.281 152.831Z" fill="#B55B52"/>
<path d="M263.566 156.258L267.523 164.125L274.179 161.105L269.85 151.366L263.566 156.258Z" fill="#B55B52"/>
<path d="M234.698 86.1876C234.698 86.1876 223.831 111.706 231.664 159.233H276.941C277.493 152.298 274.296 118.451 282.138 85.7536C277.16 84.7895 272.123 84.1522 267.061 83.8456C260.652 83.4746 254.227 83.4746 247.819 83.8456C243.391 84.2867 239.004 85.0697 234.698 86.1876Z" fill="#263238"/>
<path opacity="0.3" d="M229.853 108.016C229.195 113.734 228.859 119.485 228.848 125.242C235.006 121.236 237.197 112.049 238.066 105.393L229.853 108.016Z" fill="black"/>
<path d="M240.837 98.5682C239.107 101.534 237.36 104.265 235.53 107.05C233.701 109.835 231.827 112.539 229.862 115.188C225.915 120.663 221.588 125.854 216.913 130.724C214.433 133.294 211.74 135.65 208.862 137.768L207.685 138.581C207.178 138.889 206.653 139.224 206.164 139.486C205.221 139.972 204.243 140.389 203.239 140.734C201.449 141.326 199.618 141.786 197.761 142.108C194.33 142.668 190.859 142.943 187.383 142.931C185.69 142.931 183.997 142.931 182.321 142.759C180.646 142.587 178.989 142.515 177.25 142.262V135.932C180.302 135.408 183.471 134.82 186.496 134.178C188.017 133.861 189.529 133.518 191.024 133.138C192.518 132.758 193.939 132.36 195.298 131.899C196.596 131.495 197.861 130.994 199.083 130.398C199.585 130.146 200.071 129.865 200.541 129.557C200.767 129.421 200.903 129.277 201.084 129.15L201.863 128.535C204.077 126.661 206.15 124.627 208.066 122.45C212.128 117.771 215.928 112.872 219.448 107.774C221.259 105.205 223.007 102.583 224.764 99.9608C226.52 97.3385 228.214 94.6167 229.826 92.0486L240.837 98.5682Z" fill="#B65B52"/>
<path d="M245.03 93.7919C245.935 101.731 228.205 120.992 228.205 120.992L214.178 110.032C217.931 103.682 222.087 97.5779 226.62 91.7573C233.901 82.7238 244.025 84.8127 245.03 93.7919Z" fill="#263238"/>
<path d="M215.211 106.352L213.861 110.258L228.196 122.013L231.039 119.075L215.211 106.352Z" fill="#6F97F6"/>
<path opacity="0.3" d="M215.211 106.352L213.861 110.258L228.196 122.013L231.039 119.075L215.211 106.352Z" fill="#263238"/>
<path d="M177.251 135.958L167.154 136.102L171.22 145.543C172.469 145.949 178.047 143.969 180.855 140.877L177.251 135.958Z" fill="#B55B52"/>
<path d="M160.191 140.995L165.705 147.903L171.22 145.534L167.154 136.103L160.191 140.995Z" fill="#B55B52"/>
<path d="M244.976 54.9091C244.876 55.5873 244.441 56.0937 243.998 56.0395C243.554 55.9852 243.273 55.4065 243.364 54.7373C243.454 54.0682 243.907 53.5528 244.351 53.598C244.795 53.6432 245.075 54.2038 244.976 54.9091Z" fill="#263238"/>
<path d="M245.166 55.489C244.053 57.4716 242.68 59.2963 241.082 60.9145C242.123 62.1624 244.242 61.873 244.242 61.873L245.166 55.489Z" fill="#A02724"/>
<path d="M244.016 60.4791C242.503 60.4791 241.136 58.2998 240.892 55.5147C240.661 53.9665 241.037 52.389 241.942 51.111C242.097 50.9241 242.29 50.7724 242.509 50.6664C242.728 50.5603 242.967 50.5023 243.21 50.4961C244.722 50.4961 246.089 52.6663 246.334 55.4514C246.574 57.0003 246.204 58.582 245.302 59.8642C245.145 60.0494 244.951 60.1997 244.733 60.3056C244.515 60.4115 244.276 60.4706 244.034 60.4791H244.016ZM243.201 50.9482C243.026 50.958 242.855 51.0041 242.699 51.0835C242.543 51.1629 242.406 51.2739 242.295 51.4094C241.486 52.6014 241.162 54.0565 241.39 55.4785C241.607 57.9472 242.829 59.9998 244.106 59.9998C244.282 59.9884 244.453 59.9407 244.608 59.8597C244.764 59.7788 244.902 59.6664 245.012 59.5296C245.826 58.343 246.15 56.8888 245.917 55.4695C245.655 53.028 244.432 50.9482 243.201 50.9482Z" fill="#263238"/>
<path d="M247.375 51.8972C247.469 51.9046 247.562 51.879 247.638 51.8248C247.682 51.7964 247.72 51.7596 247.75 51.7164C247.78 51.6733 247.801 51.6247 247.812 51.5734C247.823 51.5222 247.823 51.4693 247.814 51.4178C247.804 51.3662 247.784 51.3171 247.756 51.2732C247.412 50.7297 246.945 50.2742 246.393 49.9429C245.841 49.6116 245.219 49.4138 244.577 49.3652C244.472 49.3651 244.371 49.4055 244.295 49.478C244.22 49.5504 244.175 49.6493 244.17 49.7541C244.17 49.8604 244.212 49.9626 244.286 50.0387C244.36 50.1147 244.462 50.1586 244.568 50.161C245.08 50.209 245.573 50.3744 246.009 50.6442C246.446 50.914 246.814 51.2809 247.086 51.7163C247.119 51.7648 247.162 51.8059 247.212 51.837C247.261 51.8682 247.317 51.8886 247.375 51.8972Z" fill="#263238"/>
<path d="M268.139 54.7912C266.418 63.029 265.839 67.921 261.003 71.7099C259.448 72.958 257.58 73.7579 255.603 74.0231C253.625 74.2883 251.613 74.0088 249.782 73.2147C247.952 72.4205 246.374 71.1421 245.219 69.5174C244.064 67.8927 243.375 65.9837 243.228 63.9966C242.521 56.3556 245.446 44.1753 254.094 41.77C255.95 41.205 257.922 41.1363 259.812 41.5707C261.703 42.0052 263.446 42.9276 264.868 44.2457C266.29 45.5639 267.34 47.2316 267.914 49.0822C268.488 50.9328 268.566 52.9014 268.139 54.7912Z" fill="#B55B52"/>
<path d="M279.385 186.713C279.81 177.487 279.003 168.246 276.986 159.232H247.773C250.042 168.215 251.164 177.449 251.115 186.713H279.385Z" fill="#6F97F6"/>
<path opacity="0.3" d="M279.385 186.713C279.81 177.487 279.003 168.246 276.986 159.232H247.773C250.042 168.215 251.164 177.449 251.115 186.713H279.385Z" fill="white"/>
<path d="M250.246 57.2692C248.634 56.4644 246.623 48.4256 247.176 45.5682C247.728 42.7107 254.221 39.6363 260.605 40.7937C266.989 41.9511 269.733 44.1847 270.973 49.99C272.25 56.0123 267.596 66.0405 265.295 66.8181C263.932 67.3003 262.482 67.4868 261.04 67.3652C259.599 67.2436 258.2 66.8166 256.937 66.1128C254.882 64.8559 253.813 55.6144 250.246 57.2692Z" fill="#263238"/>
<path d="M248.552 48.4531C245.437 48.6339 242.467 43.6786 245.329 39.2568C246.15 37.9965 247.319 36.9995 248.694 36.3852C250.068 35.771 251.591 35.5655 253.08 35.7935C253.08 35.7935 251.776 38.3345 256.123 37.801C260.469 37.2675 268.565 38.4792 271.39 41.5175C274.885 45.2611 272.775 52.6217 267.514 50.8132C262.253 49.0047 248.552 48.4531 248.552 48.4531Z" fill="#263238"/>
<path d="M247.719 48.5789C247.067 48.5479 246.43 48.3787 245.849 48.0824C245.268 47.7862 244.757 47.3697 244.35 46.8608C243.537 45.8893 243.009 44.7111 242.827 43.4577C242.645 42.2043 242.815 40.925 243.318 39.7624C243.329 39.7345 243.346 39.7091 243.367 39.6877C243.388 39.6662 243.413 39.6491 243.441 39.6373C243.469 39.6256 243.499 39.6194 243.529 39.6191C243.559 39.6189 243.589 39.6246 243.617 39.6358C243.645 39.6471 243.67 39.6638 243.692 39.6849C243.713 39.706 243.73 39.7311 243.742 39.7588C243.754 39.7865 243.76 39.8163 243.76 39.8464C243.761 39.8765 243.755 39.9063 243.744 39.9342C243.266 41.0173 243.101 42.2125 243.27 43.3842C243.438 44.5558 243.931 45.6569 244.694 46.5624C245.114 47.1233 245.679 47.5583 246.329 47.8199C246.979 48.0814 247.689 48.1595 248.38 48.0454C248.437 48.0339 248.497 48.0442 248.547 48.0743C248.598 48.1044 248.635 48.1522 248.652 48.2082C248.666 48.2669 248.657 48.3287 248.626 48.3809C248.596 48.433 248.547 48.4716 248.489 48.4885C248.237 48.5497 247.978 48.5801 247.719 48.5789Z" fill="#263238"/>
<path d="M255.362 56.2288C255.494 58.3649 254.804 60.4707 253.433 62.1155C251.622 64.2586 249.204 62.9655 248.471 60.3884C247.81 58.0645 247.964 54.1581 250.399 52.9554C252.835 51.7528 255.172 53.6155 255.362 56.2288Z" fill="#B55B52"/>
<path d="M227.861 186.713H260.324C261.895 177.641 262.281 168.404 261.474 159.232H231.682C231.682 159.232 230.007 170.834 227.861 186.713Z" fill="#6F97F6"/>
<path opacity="0.3" d="M227.861 186.713H260.324C261.895 177.641 262.281 168.404 261.474 159.232H231.682C231.682 159.232 230.007 170.834 227.861 186.713Z" fill="white"/>
</svg>
