<?xml version="1.0" encoding="UTF-8"?>
<svg viewBox="0 0 1285 391" preserveAspectRatio="none" version="1.1" xmlns="http://www.w3.org/2000/svg" xmlns:xlink="http://www.w3.org/1999/xlink">
    <g id="Page-1" stroke="none" stroke-width="1" fill="none" fill-rule="evenodd">
        <g id="timeline">
            <path d="M537.31,149.873 C633.073,189.604 706.14,152.816 838.157,181.735 C889.009,192.869 1075.83,194.558 1147.2,194.841 C1184.17,194.973 1184.36,237.054 1147.2,237.138 C1085.08,237.261 968.994,237.204 913.204,240.28 C847.056,243.932 822.962,257.481 775.779,260.962 C753.945,262.576 697.774,261.434 655.516,261.906 C515.882,263.698 548.81,305.581 395.911,309.695 C187.019,315.328 301.151,394.328 13.68269,390.809 C7.5388,390.809 5.44429,389.441 5.44429,384.601 C5.837803,107.8579 5,56.691 5,42.16084 C14.30469,40.88709 162.088,32.27279 237.376,80.1562 C358.413,157.091 397.587,91.9219 537.31,149.873 Z" id="Path" fill="#1C3B87" fill-rule="nonzero" opacity="0.51"></path>
            <path d="M439.96,165.412 C519.109,195.784 579.499,167.663 688.613,189.769 C730.643,198.28 885.05,199.571 944.045,199.787 C974.596,199.888 974.754,232.056 944.045,232.121 C892.698,232.215 796.751,232.172 750.64,234.523 C695.968,237.314 676.055,247.671 637.057,250.333 C619.011,251.566 572.585,250.693 537.659,251.054 C422.25,252.424 449.465,284.441 323.092,287.585 C150.441,291.891 244.772,352.282 7.17633,349.592 C2.09834,349.592 0.36721,348.546 0.36721,344.846 C0.69245,133.2949 0,94.1813 0,83.074 C7.69043,82.1003 129.835,75.5153 192.061,112.1189 C292.1,170.93 324.477,121.1129 439.96,165.412 Z" id="Path" fill-opacity="0.5" fill="#A1BDF3" fill-rule="nonzero" opacity="0.3"></path>
            <path d="M337.812,186.477 C398.585,204.162 444.954,187.788 528.734,200.66 C561.006,205.615 679.563,206.367 724.861,206.493 C748.319,206.552 748.44,225.282 724.861,225.32 C685.436,225.374 611.765,225.349 576.36,226.718 C534.381,228.343 519.092,234.374 489.148,235.924 C475.292,236.642 439.645,236.134 412.827,236.344 C324.214,237.142 345.11,255.784 248.078,257.615 C115.512,260.122 187.942,295.285 5.510167,293.719 C1.61116,293.719 0.28195,293.11 0.28195,290.956 C0.53168,167.777 0,145.002 0,138.5345 C5.904901,137.9676 99.6905,134.1333 147.469,155.446 C224.281,189.69 249.142,160.683 337.812,186.477 Z" id="Path" fill-opacity="0.4" fill="#6F97F6" fill-rule="nonzero" opacity="0.3"></path>
            <line x1="4.99999983" y1="217" x2="1285" y2="217" id="Path" stroke="#3D6AD6" stroke-width="4"></line>
            <circle id="Oval" fill="#FFFFFF" fill-rule="nonzero" cx="107.5" cy="217" r="8"></circle>
            <path d="M91.9032,267.24 C90.8499,267.24 89.8899,267.087 89.0232,266.78 C88.1565,266.473 87.4632,266.007 86.9432,265.38 C86.4232,264.74 86.1632,263.953 86.1632,263.02 L86.1832,262.6 L88.7632,262.6 C88.7499,262.68 88.7432,262.8 88.7432,262.96 C88.7432,263.627 89.0299,264.147 89.6032,264.52 C90.1765,264.893 90.9632,265.08 91.9632,265.08 C93.0299,265.08 93.8232,264.927 94.3432,264.62 C94.8632,264.313 95.1232,263.887 95.1232,263.34 C95.1232,262.913 94.9699,262.56 94.6632,262.28 C94.3565,262 93.9765,261.78 93.5232,261.62 C93.0699,261.447 92.4299,261.247 91.6032,261.02 C90.5099,260.727 89.6232,260.447 88.9432,260.18 C88.2765,259.9 87.7032,259.493 87.2232,258.96 C86.7432,258.413 86.5032,257.7 86.5032,256.82 C86.5032,255.593 87.0099,254.66 88.0232,254.02 C89.0365,253.367 90.3632,253.04 92.0032,253.04 C93.5765,253.04 94.8565,253.373 95.8432,254.04 C96.8432,254.693 97.3432,255.687 97.3432,257.02 L97.3432,257.26 L94.8232,257.26 L94.8232,257.04 C94.8232,256.467 94.5632,256.02 94.0432,255.7 C93.5365,255.367 92.8499,255.2 91.9832,255.2 C91.0765,255.2 90.3632,255.333 89.8432,255.6 C89.3365,255.867 89.0832,256.24 89.0832,256.72 C89.0832,257.08 89.2299,257.387 89.5232,257.64 C89.8165,257.88 90.1832,258.08 90.6232,258.24 C91.0765,258.387 91.6832,258.56 92.4432,258.76 C93.5499,259.053 94.4499,259.34 95.1432,259.62 C95.8499,259.9 96.4499,260.313 96.9432,260.86 C97.4499,261.407 97.7032,262.113 97.7032,262.98 C97.7032,264.447 97.1832,265.527 96.1432,266.22 C95.1032,266.9 93.6899,267.24 91.9032,267.24 Z M102.683,267.24 C101.7897,267.24 101.143,266.993 100.743,266.5 C100.3564,265.993 100.163,265.367 100.163,264.62 L100.163,258.44 L98.883,258.44 L98.883,256.48 L100.203,256.48 L100.643,253.54 L102.563,253.54 L102.563,256.48 L104.363,256.48 L104.363,258.44 L102.563,258.44 L102.563,264.38 C102.563,264.98 102.8497,265.28 103.423,265.28 L104.363,265.28 L104.363,266.92 C104.1497,267 103.883,267.073 103.563,267.14 C103.243,267.207 102.9497,267.24 102.683,267.24 Z M108.872,267.24 C108.019,267.24 107.245,267.033 106.552,266.62 C105.872,266.193 105.532,265.413 105.532,264.28 C105.532,262.933 106.105,261.987 107.252,261.44 C108.399,260.893 110.025,260.62 112.132,260.62 L112.132,259.74 C112.132,259.233 111.999,258.84 111.732,258.56 C111.479,258.28 111.012,258.14 110.332,258.14 C109.625,258.14 109.125,258.253 108.832,258.48 C108.539,258.707 108.392,258.987 108.392,259.32 L108.392,259.6 L106.072,259.6 C106.059,259.52 106.052,259.373 106.052,259.16 C106.052,258.253 106.439,257.54 107.212,257.02 C107.999,256.5 109.039,256.24 110.332,256.24 C111.732,256.24 112.779,256.527 113.472,257.1 C114.179,257.673 114.532,258.493 114.532,259.56 L114.532,264.58 C114.532,264.82 114.599,265 114.732,265.12 C114.865,265.227 115.032,265.28 115.232,265.28 L115.872,265.28 L115.872,266.92 C115.445,267.12 114.945,267.22 114.372,267.22 C113.852,267.22 113.419,267.093 113.072,266.84 C112.725,266.587 112.492,266.24 112.372,265.8 L112.232,265.8 C111.445,266.76 110.325,267.24 108.872,267.24 Z M109.592,265.32 C110.379,265.32 110.999,265.093 111.452,264.64 C111.905,264.187 112.132,263.573 112.132,262.8 L112.132,262.32 C110.839,262.32 109.825,262.447 109.092,262.7 C108.359,262.94 107.992,263.387 107.992,264.04 C107.992,264.893 108.525,265.32 109.592,265.32 Z M117.425,256.48 L119.405,256.48 L119.625,258.14 L119.765,258.14 C120.245,256.873 121.032,256.24 122.125,256.24 C122.499,256.24 122.832,256.3 123.125,256.42 L123.125,258.68 L122.365,258.68 C120.672,258.68 119.825,259.627 119.825,261.52 L119.825,267 L117.425,267 L117.425,256.48 Z M127.488,267.24 C126.594,267.24 125.948,266.993 125.548,266.5 C125.161,265.993 124.968,265.367 124.968,264.62 L124.968,258.44 L123.688,258.44 L123.688,256.48 L125.008,256.48 L125.448,253.54 L127.368,253.54 L127.368,256.48 L129.168,256.48 L129.168,258.44 L127.368,258.44 L127.368,264.38 C127.368,264.98 127.654,265.28 128.228,265.28 L129.168,265.28 L129.168,266.92 C128.954,267 128.688,267.073 128.368,267.14 C128.048,267.207 127.754,267.24 127.488,267.24 Z" id="Shape" fill="#EAF1FF" fill-rule="nonzero"></path>
            <circle id="Oval" fill="#FFFFFF" fill-rule="nonzero" cx="309" cy="217" r="8"></circle>
            <path d="M289.688,253.28 L296.288,253.28 C297.754,253.28 298.868,253.667 299.628,254.44 C300.388,255.213 300.768,256.287 300.768,257.66 C300.768,259.033 300.368,260.12 299.568,260.92 C298.781,261.707 297.641,262.1 296.148,262.1 L292.248,262.1 L292.248,267 L289.688,267 L289.688,253.28 Z M296.068,259.92 C296.734,259.92 297.254,259.72 297.628,259.32 C298.001,258.92 298.188,258.367 298.188,257.66 C298.188,256.967 298.008,256.427 297.648,256.04 C297.288,255.653 296.761,255.46 296.068,255.46 L292.248,255.46 L292.248,259.92 L296.068,259.92 Z M303.007,252.54 L305.407,252.54 L305.407,267 L303.007,267 L303.007,252.54 Z M310.743,267.24 C309.89,267.24 309.117,267.033 308.423,266.62 C307.743,266.193 307.403,265.413 307.403,264.28 C307.403,262.933 307.977,261.987 309.123,261.44 C310.27,260.893 311.897,260.62 314.003,260.62 L314.003,259.74 C314.003,259.233 313.87,258.84 313.603,258.56 C313.35,258.28 312.883,258.14 312.203,258.14 C311.497,258.14 310.997,258.253 310.703,258.48 C310.41,258.707 310.263,258.987 310.263,259.32 L310.263,259.6 L307.943,259.6 C307.93,259.52 307.923,259.373 307.923,259.16 C307.923,258.253 308.31,257.54 309.083,257.02 C309.87,256.5 310.91,256.24 312.203,256.24 C313.603,256.24 314.65,256.527 315.343,257.1 C316.05,257.673 316.403,258.493 316.403,259.56 L316.403,264.58 C316.403,264.82 316.47,265 316.603,265.12 C316.737,265.227 316.903,265.28 317.103,265.28 L317.743,265.28 L317.743,266.92 C317.317,267.12 316.817,267.22 316.243,267.22 C315.723,267.22 315.29,267.093 314.943,266.84 C314.597,266.587 314.363,266.24 314.243,265.8 L314.103,265.8 C313.317,266.76 312.197,267.24 310.743,267.24 Z M311.463,265.32 C312.25,265.32 312.87,265.093 313.323,264.64 C313.777,264.187 314.003,263.573 314.003,262.8 L314.003,262.32 C312.71,262.32 311.697,262.447 310.963,262.7 C310.23,262.94 309.863,263.387 309.863,264.04 C309.863,264.893 310.397,265.32 311.463,265.32 Z M319.296,256.48 L321.276,256.48 L321.476,257.88 L321.616,257.88 C322.003,257.36 322.476,256.96 323.036,256.68 C323.61,256.387 324.263,256.24 324.996,256.24 C326.063,256.24 326.896,256.533 327.496,257.12 C328.096,257.693 328.396,258.62 328.396,259.9 L328.396,267 L325.996,267 L325.996,260.32 C325.996,259.6 325.83,259.087 325.496,258.78 C325.176,258.473 324.696,258.32 324.056,258.32 C323.39,258.32 322.83,258.56 322.376,259.04 C321.923,259.52 321.696,260.133 321.696,260.88 L321.696,267 L319.296,267 L319.296,256.48 Z" id="Shape" fill="#EAF1FF" fill-rule="nonzero"></path>
            <circle id="Oval" fill="#FFFFFF" fill-rule="nonzero" cx="501" cy="217" r="8"></circle>
            <path d="M483.911,267.24 C481.751,267.24 480.104,266.66 478.971,265.5 C477.837,264.34 477.271,262.553 477.271,260.14 C477.271,257.767 477.844,255.993 478.991,254.82 C480.137,253.633 481.777,253.04 483.911,253.04 C485.084,253.04 486.124,253.24 487.031,253.64 C487.937,254.027 488.651,254.62 489.171,255.42 C489.704,256.207 489.971,257.18 489.971,258.34 L487.351,258.34 C487.351,257.34 487.037,256.567 486.411,256.02 C485.797,255.473 484.977,255.2 483.951,255.2 C482.577,255.2 481.557,255.593 480.891,256.38 C480.224,257.167 479.891,258.353 479.891,259.94 L479.891,260.34 C479.891,261.94 480.217,263.133 480.871,263.92 C481.537,264.693 482.564,265.08 483.951,265.08 C485.031,265.08 485.884,264.813 486.511,264.28 C487.137,263.733 487.451,262.967 487.451,261.98 L489.971,261.98 C489.971,263.7 489.411,265.007 488.291,265.9 C487.184,266.793 485.724,267.24 483.911,267.24 Z M496.744,267.24 C495.011,267.24 493.711,266.793 492.844,265.9 C491.991,265.007 491.564,263.62 491.564,261.74 C491.564,259.86 491.991,258.473 492.844,257.58 C493.711,256.687 495.011,256.24 496.744,256.24 C498.478,256.24 499.771,256.687 500.624,257.58 C501.491,258.473 501.924,259.86 501.924,261.74 C501.924,263.62 501.491,265.007 500.624,265.9 C499.771,266.793 498.478,267.24 496.744,267.24 Z M496.744,265.28 C497.691,265.28 498.378,265.007 498.804,264.46 C499.231,263.9 499.444,263.04 499.444,261.88 L499.444,261.6 C499.444,260.44 499.231,259.587 498.804,259.04 C498.378,258.48 497.691,258.2 496.744,258.2 C495.784,258.2 495.091,258.48 494.664,259.04 C494.251,259.587 494.044,260.44 494.044,261.6 L494.044,261.88 C494.044,263.04 494.251,263.9 494.664,264.46 C495.091,265.007 495.784,265.28 496.744,265.28 Z M507.58,267.24 C506.247,267.24 505.213,266.787 504.48,265.88 C503.747,264.973 503.38,263.587 503.38,261.72 C503.38,259.907 503.747,258.54 504.48,257.62 C505.213,256.7 506.193,256.24 507.42,256.24 C508.887,256.24 509.94,256.727 510.58,257.7 L510.7,257.7 L510.7,252.54 L513.1,252.54 L513.1,267 L511.12,267 L510.92,265.6 L510.8,265.6 C510.453,266.133 510,266.54 509.44,266.82 C508.88,267.1 508.26,267.24 507.58,267.24 Z M508.3,265.18 C509.127,265.18 509.733,264.907 510.12,264.36 C510.507,263.8 510.7,262.973 510.7,261.88 L510.7,261.64 C510.7,259.413 509.9,258.3 508.3,258.3 C507.42,258.3 506.793,258.567 506.42,259.1 C506.047,259.62 505.86,260.46 505.86,261.62 L505.86,261.88 C505.86,263.027 506.047,263.867 506.42,264.4 C506.793,264.92 507.42,265.18 508.3,265.18 Z M520.276,267.24 C518.569,267.24 517.303,266.793 516.476,265.9 C515.649,265.007 515.236,263.62 515.236,261.74 C515.236,259.86 515.649,258.473 516.476,257.58 C517.316,256.687 518.583,256.24 520.276,256.24 C521.823,256.24 522.976,256.673 523.736,257.54 C524.509,258.407 524.896,259.76 524.896,261.6 L524.896,262.32 L517.676,262.32 C517.716,263.36 517.936,264.127 518.336,264.62 C518.749,265.1 519.403,265.34 520.296,265.34 C520.963,265.34 521.503,265.173 521.916,264.84 C522.329,264.493 522.536,263.987 522.536,263.32 L524.896,263.32 C524.896,264.613 524.469,265.593 523.616,266.26 C522.763,266.913 521.649,267.24 520.276,267.24 Z M522.396,260.62 C522.396,258.967 521.689,258.14 520.276,258.14 C519.476,258.14 518.869,258.347 518.456,258.76 C518.056,259.16 517.809,259.78 517.716,260.62 L522.396,260.62 Z" id="Shape" fill="#EAF1FF" fill-rule="nonzero"></path>
            <circle id="Oval" fill="#FFFFFF" fill-rule="nonzero" cx="726" cy="217" r="8"></circle>
            <path d="M719.646,267.22 C719.499,267.233 719.272,267.24 718.966,267.24 C716.766,267.24 715.066,266.647 713.866,265.46 C712.666,264.273 712.066,262.5 712.066,260.14 C712.066,257.78 712.666,256.007 713.866,254.82 C715.066,253.633 716.766,253.04 718.966,253.04 C721.166,253.04 722.866,253.633 724.066,254.82 C725.279,256.007 725.886,257.78 725.886,260.14 C725.886,261.807 725.579,263.187 724.966,264.28 C724.352,265.36 723.466,266.147 722.306,266.64 L725.366,269.6 L721.946,269.6 L719.646,267.22 Z M718.966,265.08 C720.379,265.08 721.446,264.687 722.166,263.9 C722.899,263.1 723.266,261.92 723.266,260.36 L723.266,259.94 C723.266,258.38 722.899,257.2 722.166,256.4 C721.432,255.6 720.366,255.2 718.966,255.2 C717.579,255.2 716.519,255.6 715.786,256.4 C715.052,257.2 714.686,258.38 714.686,259.94 L714.686,260.36 C714.686,261.92 715.046,263.1 715.766,263.9 C716.499,264.687 717.566,265.08 718.966,265.08 Z M732.172,253.28 L735.392,253.28 L740.732,267 L737.972,267 L736.852,264.02 L730.572,264.02 L729.472,267 L726.832,267 L732.172,253.28 Z M736.032,261.86 L734.632,258.1 C734.419,257.567 734.192,256.887 733.952,256.06 C733.912,255.94 733.872,255.833 733.832,255.74 C733.805,255.633 733.779,255.547 733.752,255.48 L733.652,255.48 L733.452,256.1 L732.772,258.1 L731.372,261.86 L736.032,261.86 Z" id="Shape" fill="#EAF1FF" fill-rule="nonzero"></path>
            <g id="Group" transform="translate(938.000000, 209.000000)">
                <circle id="Oval" fill="#FBBC79" fill-rule="nonzero" cx="8" cy="8" r="8"></circle>
                <circle id="Oval" stroke="#FBBC79" stroke-width="3" cx="8" cy="8" r="8"></circle>
            </g>
            <path d="M912.82,253.28 L915.38,253.28 L915.38,264.78 L922.66,264.78 L922.66,267 L912.82,267 L912.82,253.28 Z M927.196,267.24 C926.343,267.24 925.57,267.033 924.876,266.62 C924.196,266.193 923.856,265.413 923.856,264.28 C923.856,262.933 924.43,261.987 925.576,261.44 C926.723,260.893 928.35,260.62 930.456,260.62 L930.456,259.74 C930.456,259.233 930.323,258.84 930.056,258.56 C929.803,258.28 929.336,258.14 928.656,258.14 C927.95,258.14 927.45,258.253 927.156,258.48 C926.863,258.707 926.716,258.987 926.716,259.32 L926.716,259.6 L924.396,259.6 C924.383,259.52 924.376,259.373 924.376,259.16 C924.376,258.253 924.763,257.54 925.536,257.02 C926.323,256.5 927.363,256.24 928.656,256.24 C930.056,256.24 931.103,256.527 931.796,257.1 C932.503,257.673 932.856,258.493 932.856,259.56 L932.856,264.58 C932.856,264.82 932.923,265 933.056,265.12 C933.19,265.227 933.356,265.28 933.556,265.28 L934.196,265.28 L934.196,266.92 C933.77,267.12 933.27,267.22 932.696,267.22 C932.176,267.22 931.743,267.093 931.396,266.84 C931.05,266.587 930.816,266.24 930.696,265.8 L930.556,265.8 C929.77,266.76 928.65,267.24 927.196,267.24 Z M927.916,265.32 C928.703,265.32 929.323,265.093 929.776,264.64 C930.23,264.187 930.456,263.573 930.456,262.8 L930.456,262.32 C929.163,262.32 928.15,262.447 927.416,262.7 C926.683,262.94 926.316,263.387 926.316,264.04 C926.316,264.893 926.85,265.32 927.916,265.32 Z M939.09,267.24 C936.823,267.24 935.69,266.02 935.69,263.58 L935.69,256.48 L938.09,256.48 L938.09,263.16 C938.09,263.88 938.25,264.393 938.57,264.7 C938.903,265.007 939.39,265.16 940.03,265.16 C940.696,265.16 941.256,264.92 941.71,264.44 C942.163,263.96 942.39,263.347 942.39,262.6 L942.39,256.48 L944.79,256.48 L944.79,267 L942.81,267 L942.61,265.6 L942.47,265.6 C942.083,266.12 941.603,266.527 941.03,266.82 C940.47,267.1 939.823,267.24 939.09,267.24 Z M947.586,256.48 L949.566,256.48 L949.766,257.88 L949.906,257.88 C950.292,257.36 950.766,256.96 951.326,256.68 C951.899,256.387 952.552,256.24 953.286,256.24 C954.352,256.24 955.186,256.533 955.786,257.12 C956.386,257.693 956.686,258.62 956.686,259.9 L956.686,267 L954.286,267 L954.286,260.32 C954.286,259.6 954.119,259.087 953.786,258.78 C953.466,258.473 952.986,258.32 952.346,258.32 C951.679,258.32 951.119,258.56 950.666,259.04 C950.212,259.52 949.986,260.133 949.986,260.88 L949.986,267 L947.586,267 L947.586,256.48 Z M963.641,267.24 C961.988,267.24 960.761,266.793 959.961,265.9 C959.161,265.007 958.761,263.62 958.761,261.74 C958.761,259.86 959.161,258.473 959.961,257.58 C960.775,256.687 962.001,256.24 963.641,256.24 C965.068,256.24 966.168,256.593 966.941,257.3 C967.715,258.007 968.101,259.047 968.101,260.42 L965.661,260.42 C965.661,259.673 965.495,259.113 965.161,258.74 C964.828,258.367 964.308,258.18 963.601,258.18 C962.775,258.18 962.168,258.467 961.781,259.04 C961.395,259.6 961.201,260.467 961.201,261.64 L961.201,261.88 C961.201,263.053 961.395,263.92 961.781,264.48 C962.181,265.027 962.821,265.3 963.701,265.3 C964.381,265.3 964.895,265.107 965.241,264.72 C965.601,264.333 965.781,263.78 965.781,263.06 L968.101,263.06 C968.101,264.38 967.708,265.407 966.921,266.14 C966.148,266.873 965.055,267.24 963.641,267.24 Z M970.164,252.54 L972.564,252.54 L972.564,257.68 L972.704,257.68 C973.05,257.24 973.49,256.893 974.024,256.64 C974.557,256.373 975.17,256.24 975.864,256.24 C976.93,256.24 977.764,256.533 978.364,257.12 C978.964,257.693 979.264,258.62 979.264,259.9 L979.264,267 L976.864,267 L976.864,260.32 C976.864,259.6 976.697,259.087 976.364,258.78 C976.044,258.473 975.564,258.32 974.924,258.32 C974.257,258.32 973.697,258.56 973.244,259.04 C972.79,259.52 972.564,260.133 972.564,260.88 L972.564,267 L970.164,267 L970.164,252.54 Z" id="Shape" fill="#FBBC79" fill-rule="nonzero"></path>
            <g id="Group" transform="translate(1144.000000, 209.000000)">
                <circle id="Oval" fill="#FBBC79" fill-rule="nonzero" cx="8" cy="8" r="8"></circle>
                <circle id="Oval" stroke="#FBBC79" stroke-width="3" cx="8" cy="8" r="8"></circle>
            </g>
            <path d="M1131.18,253.28 L1133.9,253.28 L1136.16,262.16 C1136.26,262.507 1136.38,263.167 1136.54,264.14 L1136.64,264.14 C1136.8,263.113 1136.92,262.453 1136.98,262.16 L1139.04,253.28 L1142.28,253.28 L1144.34,262.16 C1144.42,262.533 1144.54,263.193 1144.7,264.14 L1144.8,264.14 C1144.96,263.193 1145.1,262.533 1145.2,262.16 L1147.44,253.28 L1149.86,253.28 L1146.1,267 L1143.14,267 L1140.92,257.96 C1140.8,257.48 1140.68,256.8 1140.54,255.92 L1140.46,255.92 C1140.32,256.88 1140.2,257.56 1140.1,257.96 L1137.9,267 L1134.94,267 L1131.18,253.28 Z M1151.02,252.54 L1153.38,252.54 L1153.38,254.9 L1151.02,254.9 L1151.02,252.54 Z M1151.02,256.48 L1153.42,256.48 L1153.42,267 L1151.02,267 L1151.02,256.48 Z M1156.19,256.48 L1158.17,256.48 L1158.37,257.88 L1158.51,257.88 C1158.9,257.36 1159.37,256.96 1159.93,256.68 C1160.51,256.387 1161.16,256.24 1161.89,256.24 C1162.96,256.24 1163.79,256.533 1164.39,257.12 C1164.99,257.693 1165.29,258.62 1165.29,259.9 L1165.29,267 L1162.89,267 L1162.89,260.32 C1162.89,259.6 1162.73,259.087 1162.39,258.78 C1162.07,258.473 1161.59,258.32 1160.95,258.32 C1160.29,258.32 1159.73,258.56 1159.27,259.04 C1158.82,259.52 1158.59,260.133 1158.59,260.88 L1158.59,267 L1156.19,267 L1156.19,256.48 Z M1168.39,253.28 L1171.17,253.28 L1170.53,263.24 L1169.01,263.24 L1168.39,253.28 Z M1168.53,264.46 L1171.03,264.46 L1171.03,267 L1168.53,267 L1168.53,264.46 Z" id="Shape" fill="#FBBC79" fill-rule="nonzero"></path>
            <path d="M718.4922,2.3346 C713.5233,1.66418 708.5148,0.98836 703.4137,0.69826 C693.0049,-0.53086 682.4637,0.12508 672.3113,2.63356 C671.4809,2.87787 670.7837,3.43581 670.3717,4.18571 C669.9596,4.93562 669.8662,5.8167 670.1116,6.637 C670.2358,7.0422 670.4403,7.4196 670.7133,7.7471 C670.9862,8.0747 671.3222,8.3459 671.7018,8.5453 C672.0815,8.7446 672.4972,8.8681 672.9249,8.9084 C673.3526,8.9488 673.7839,8.9053 674.1937,8.7804 C683.5257,6.525 693.2012,5.9423 702.7577,7.0601 C763.232,12.114 813.744,34.6169 861.827,77.8156 C876.823,91.3416 889.492,107.172 899.336,124.684 C899.515,125.084 899.774,125.444 900.098,125.742 C900.422,126.04 900.804,126.27 901.221,126.418 C901.638,126.565 902.081,126.628 902.523,126.601 C902.965,126.574 903.396,126.459 903.79,126.262 C904.184,126.065 904.533,125.791 904.814,125.456 C905.096,125.121 905.305,124.733 905.429,124.315 C905.552,123.897 905.588,123.459 905.533,123.026 C905.477,122.594 905.333,122.176 905.109,121.8 C894.997,103.621 881.874,87.2213 866.283,73.2806 C821.191,32.5161 773.865,9.8058 718.4922,2.3346 Z" id="Path" fill="#FBBC79" fill-rule="nonzero"></path>
            <path d="M915.496,102.099 C914.967,102.027 914.427,102.084 913.926,102.266 C913.425,102.448 912.978,102.749 912.625,103.142 C912.272,103.536 912.023,104.01 911.9,104.521 C911.778,105.033 911.786,105.568 911.924,106.077 C915.01,117.528 914.369,129.628 910.09,140.669 C898.66,130.66 886.202,121.853 872.919,114.391 C872.548,114.167 872.135,114.018 871.705,113.953 C871.275,113.888 870.837,113.909 870.416,114.014 C869.995,114.119 869.6,114.306 869.255,114.565 C868.91,114.823 868.621,115.147 868.405,115.518 C868.19,115.888 868.053,116.298 868.001,116.723 C867.95,117.147 867.986,117.578 868.107,117.99 C868.228,118.401 868.432,118.785 868.706,119.118 C868.98,119.451 869.319,119.727 869.702,119.93 C883.874,127.902 897.077,137.445 909.051,148.372 C909.427,148.7 909.875,148.94 910.359,149.072 C910.843,149.204 911.351,149.225 911.844,149.134 C912.337,149.043 912.801,148.842 913.202,148.546 C913.603,148.251 913.929,147.868 914.156,147.429 C920.669,134.06 922.108,118.821 918.214,104.457 C918.048,103.844 917.701,103.293 917.217,102.873 C916.734,102.453 916.135,102.184 915.496,102.099 Z" id="Path" fill="#FBBC79" fill-rule="nonzero"></path>
        </g>
    </g>
</svg>